<?xml version="1.0" encoding="utf-8"?>
<!-- Generator: Adobe Illustrator 19.2.1, SVG Export Plug-In . SVG Version: 6.00 Build 0)  -->
<svg version="1.1" id="Слой_1" xmlns="http://www.w3.org/2000/svg" xmlns:xlink="http://www.w3.org/1999/xlink" x="0px" y="0px"
	 viewBox="0 0 500 200" style="enable-background:new 0 0 500 200;" xml:space="preserve">
<style type="text/css">
	.st0{fill:none;stroke:#FFFFFF;stroke-width:0.25;stroke-miterlimit:10;}
</style>
<g>
	<g>
		<g>
			<g>
				<g>
					<g>
						<g>
							<g>
								<path class="st0" d="M158.6,123.7c-3.6,19.3-2,43.6,12.4,45.9c10.1,1.6,28.8-21.7,31.2-46c3-29.6-4.3-41.3-13.9-42.5
									C180.1,80,163.6,97.1,158.6,123.7z"/>
								<path class="st0" d="M175.7,87.9c15.6,28-5.1,76-13.4,76"/>
							</g>
							<path class="st0" d="M171,184.9c0,3.8,0.8,6.8,1.8,6.8"/>
							<path class="st0" d="M175.3,184.9c-0.6,3-1.1,5.6-2.6,6.8"/>
							<g>
								<path class="st0" d="M176.9,184.4c0,3,1.4,5.4,3.1,5.4"/>
								<path class="st0" d="M181,182.9c0,3.7-0.2,5.8-1,6.8"/>
							</g>
							<path class="st0" d="M175.3,184.9c0-0.3,0.8-1.1,1.6-0.5"/>
							<path class="st0" d="M182.9,182.1c0.6,2.6,1.6,4.4,3.4,4.6"/>
							<path class="st0" d="M187.2,179.7c0.2,2.9,0,6.6-0.9,7.1"/>
							<path class="st0" d="M181,182.9c0.7-0.8,1.3-0.8,1.9-0.8"/>
							<path class="st0" d="M188.8,179c0.7,1.3,1.8,3.3,3.6,3.5"/>
							<path class="st0" d="M192.9,175c0,4.2,0,7.3-0.5,7.5"/>
							<path class="st0" d="M187.2,179.7c0-0.4,0.8-1,1.7-0.7"/>
							<path class="st0" d="M194.4,174c1.3,1.9,2.5,3,4.5,2.8"/>
							<path class="st0" d="M198.6,169.1c0.2,2.5,0.4,6.3,0.2,7.7"/>
							<path class="st0" d="M194.4,174c-0.7,0.1-0.9,0.3-1.4,1"/>
							<path class="st0" d="M199.7,168.1c1,1.1,2.2,2.2,4.4,2.3"/>
							<path class="st0" d="M203.5,162.9c0.6,2.8,0.9,5.8,0.6,7.5"/>
							<path class="st0" d="M199.7,168.1c-0.4,0.1-0.9,0.6-1.1,1"/>
							<path class="st0" d="M204.6,161.6c0,0.6,3.3,1.9,4.2,1.1"/>
							<path class="st0" d="M207.9,156.8c1.9,2.6,1.3,5.3,0.8,5.8"/>
							<path class="st0" d="M204.6,161.6c-0.5-0.2-1,0.7-1.1,1.3"/>
							<path class="st0" d="M208.6,154.3c0,0,1.9,0.8,4.7,0"/>
							<path class="st0" d="M211.9,148.5c2.6,3.4,1.9,4.6,1.4,5.7"/>
							<path class="st0" d="M208.6,154.2c-0.5,0-1.4,1.3-0.6,2.6"/>
							<path class="st0" d="M212.1,145.9c2.3-0.3,4.8-0.3,5.3-2.3"/>
							<path class="st0" d="M214.7,139.7c2.1,1.2,2.6,3.3,2.6,3.9"/>
							<path class="st0" d="M211.9,148.5c-1.2-1.4,0.1-2.6,0.2-2.6"/>
							<path class="st0" d="M215.1,137c2.2-0.2,4.3-1.5,4.7-2.9"/>
							<path class="st0" d="M216.7,130.2c3.8,2.4,3.2,3.9,3.2,3.9"/>
							<path class="st0" d="M215.1,137c-0.5,0.8-0.8,1.6-0.4,2.7"/>
							<path class="st0" d="M217.1,128.4c2.4-1,4-2.4,4.8-4"/>
							<path class="st0" d="M218.9,121.5c1.8,0.8,3.4,1.5,3,2.9"/>
							<path class="st0" d="M217.1,128.4c-0.5,0.4-0.7,1.3-0.4,1.8"/>
							<path class="st0" d="M218.4,119.5c1.8-2.4,4.6-3.9,4.8-6"/>
							<path class="st0" d="M219.3,112.5c1.3,0.4,4,0.6,4,1.1"/>
							<path class="st0" d="M218.4,119.5c-1,1.4,0.5,2,0.5,2"/>
							<path class="st0" d="M218.5,110c0.9-1,2.4-2.3,4-3.2"/>
							<path class="st0" d="M218.2,103.5c0,0.1,1.7,0.3,4.1,0.3"/>
							<path class="st0" d="M222.5,103.7"/>
							<path class="st0" d="M218.5,112.5"/>
							<path class="st0" d="M217.7,101.3c1.6-2.1,4.5-3.5,5.6-4.4"/>
							<path class="st0" d="M217,95.5c0,0.1,3-1.1,6.1-0.5"/>
							<path class="st0" d="M223,95c0.7,0.4,0.8,1.5,0.2,1.9"/>
							<path class="st0" d="M217,95.5c-0.6,0-0.9-1.3-0.7-1.7"/>
							<path class="st0" d="M216.3,93.8c2-2.8,3.3-6.1,2.8-7"/>
							<path class="st0" d="M219.1,86.8c-0.8-0.9-3.9,2.1-4.5,1.5"/>
							<path class="st0" d="M216.3,79.7c-0.3,3.8-3.4,6.5-1.7,8.6"/>
							<path class="st0" d="M216.3,79.7c-1.5,0-3.2,0-4.7,2.9"/>
							<path class="st0" d="M211.6,82.6c-2.6-1.6,0.8-4.6,0.5-9.3"/>
							<path class="st0" d="M212.1,73.3c-3.4,1.4-3.2,4.2-4.8,3.8"/>
							<path class="st0" d="M207.3,77.1c-1.8-0.9,1.6-6.4,0.3-8.6"/>
							<path class="st0" d="M207.6,68.5c-2.5,0.8-2.1,4.8-4.5,4.5"/>
							<path class="st0" d="M203.1,73c-1.9-0.6,0.8-7.9-1-7.9"/>
							<path class="st0" d="M202.1,65.1c-1.5,0-2.4,5.4-4.1,5.2"/>
							<path class="st0" d="M198,70.3c-2.5,0.2,0.8-7.3-1.9-7.3"/>
							<path class="st0" d="M196.1,63c-2.1,0.7-1.5,6.3-3.7,5.9"/>
							<path class="st0" d="M192.4,68.9c-2.4,0,0.5-6.8-2.6-6.8"/>
							<path class="st0" d="M189.8,62.1c-1.2,0-1.1,7.5-3.4,7"/>
							<path class="st0" d="M186.4,69.1c-1.8,0-0.6-6.4-2.5-6.4"/>
							<path class="st0" d="M183.9,62.7c-1.3,0-1.2,7.6-3.1,7.4"/>
							<path class="st0" d="M180.8,70.1c-1.8,0.3-1.5-5.7-3.7-5.3"/>
							<path class="st0" d="M177.1,64.8c-1.2,0.4,0.2,6.9-1.8,7.5"/>
							<path class="st0" d="M175.3,72.3c-2.6,1.3-2.9-4.6-4.5-4"/>
							<path class="st0" d="M170.8,68.3c-1,0.3-0.2,7.1-1.5,7.9"/>
							<path class="st0" d="M169.3,76.2c-1.7,0.2-3.6-3.3-5.3-4.3"/>
							<path class="st0" d="M164.1,71.9c-0.3,4.8,0.6,8.9-0.2,9.3"/>
							<path class="st0" d="M163.9,81.2c-1.5,1.4-3-1.7-5.3-3"/>
							<path class="st0" d="M158.6,78.2"/>
							<path class="st0" d="M158.5,88.5c-0.7-0.8-2.1-1.5-4.7-1.5"/>
							<path class="st0" d="M153.8,87c-1.2,1.5,0.3,7.9,0.4,7.9"/>
							<path class="st0" d="M158.6,78.2c-0.8,2.4,0.8,7.9-0.1,10.3"/>
							<path class="st0" d="M154.2,94.9c-0.9,1.4-3-0.3-5.4,0.5"/>
							<path class="st0" d="M148.8,95.4c-0.4,1.9,0.6,6,1.7,6.8"/>
							<path class="st0" d="M150.5,102.2c-0.1,0.7-0.3,1.5-1.3,1.8"/>
							<path class="st0" d="M149.2,104c-1.6-0.2-3,0.2-4.4,0.8"/>
							<path class="st0" d="M144.8,104.8c-0.3,2.6,1.1,4.4,2.2,5.7"/>
							<path class="st0" d="M147,110.5c0.2,0.8-0.1,1.8-0.9,2.1"/>
							<path class="st0" d="M146.1,112.6c-0.8,0.2-3.1,0.6-4.7,1.6"/>
							<path class="st0" d="M141.5,114.2c-0.2,2.7,1.3,4.5,3.2,5.3"/>
							<path class="st0" d="M144.6,119.4c-0.1,0.9-0.1,1.6-1.1,2.3"/>
							<path class="st0" d="M143.5,121.8c-0.6,0.3-3.6,1.1-4.8,3.6"/>
							<path class="st0" d="M139.4,124.3c-0.2,1.8,1.6,2.9,3.2,4"/>
							<path class="st0" d="M142.6,128.2c0.3,1.1,0,2.1-0.3,2.5"/>
							<path class="st0" d="M142.3,130.7c-1.8,0.9-3.6,1.5-4.6,4.2"/>
							<path class="st0" d="M137.7,134.9c0.3,1.5,1.8,2.2,4.1,2.2"/>
							<path class="st0" d="M141.8,137c0.2,1,0.1,1.8-0.2,2.4"/>
							<path class="st0" d="M141.5,139.5c-1.1,1.1-3.5,3.2-4.2,5.1"/>
							<path class="st0" d="M137.4,144.5c0,1.2,1.4,2,4.3,1.7"/>
							<path class="st0" d="M141.7,146.2c0.2,0.5,0.3,1.6,0.1,1.9"/>
							<path class="st0" d="M141.8,148.1c-1.1,1.2-3.7,4.1-4,6.1"/>
							<path class="st0" d="M137.8,154.3c0.9,1.2,4.2,0.5,4.9,0.3"/>
							<path class="st0" d="M142.7,154.6c0.3,0.8,0.1,1.7,0.2,1.7"/>
							<path class="st0" d="M142.9,156.3c-0.4,1.1-3.1,2.6-3.1,6.8"/>
							<path class="st0" d="M139.8,163.1c1.9,0.1,3.5-0.7,4.8-1.2"/>
							<path class="st0" d="M144.7,161.9c0.7,2-2.4,6.3-2.6,8.3"/>
							<path class="st0" d="M142,170.3c2.3,1.5,4-2.7,5-1.8"/>
							<path class="st0" d="M147,168.5c1.4,0.7-2.7,7.8-0.9,9.1"/>
							<path class="st0" d="M146.1,177.6c2.7-1.3,2.5-3.5,4.2-3"/>
							<path class="st0" d="M150.3,174.6c1.7,0.3-1.8,7.8-0.3,8.3"/>
							<path class="st0" d="M150,182.9c2.7-0.4,2.5-4.2,4.8-3.7"/>
							<path class="st0" d="M154.8,179.3c1.3,0-1.2,6.6,0.2,7.6"/>
							<path class="st0" d="M155,186.9c2.1-0.6,2.6-5.3,4.5-4.4"/>
							<path class="st0" d="M159.4,182.5c1.5,0,0,6.9,1.3,7.5"/>
							<path class="st0" d="M160.7,190c1.3-0.2,2-5.9,4-5.3"/>
							<path class="st0" d="M164.8,184.7c1.7-0.5,0,6.4,1.6,6.7"/>
							<path class="st0" d="M166.3,191.4c1.8,0.3,1.4-6.9,4.7-6.5"/>
							<path class="st0" d="M218.5,112.5"/>
							<path class="st0" d="M218.5,110c-0.4,0.4-0.3,2.3,0.8,2.5"/>
							<path class="st0" d="M222.5,106.8c0.3-0.6,0.5-2.4-0.2-3"/>
							<path class="st0" d="M217.7,101.3c-0.2,0.7,0.3,2.2,0.5,2.2"/>
						</g>
						<path class="st0" d="M207.6,68.5c-0.5-0.8-3.2,1.3-5.1,1"/>
						<path class="st0" d="M202.1,65.1c-1.3-1.1-3.8,0.8-4.9,0.5"/>
						<path class="st0" d="M196.1,63c-1.8-1.4-3.7,0.8-4.9,0.5"/>
						<path class="st0" d="M189.8,62.1c-0.8-1.9-3,0.1-5.9,0.6"/>
						<path class="st0" d="M176.8,65.2c-1.9-1.4-7.3-8.3-8.3-7.7"/>
						<path class="st0" d="M168.5,57.5c-0.8,0.8-1.8,3.1-2.2,5"/>
						<path class="st0" d="M166.3,62.5c1.3,2.6,3.4,4.1,4.6,5.8"/>
						<path class="st0" d="M172.4,60.7c1-1.1,1.5-2.7,2.5-2.7"/>
						<path class="st0" d="M174.9,58c2.9,0.2,4.3,3.6,5,4.2"/>
						<path class="st0" d="M179,61.1c1.3-1.7,4.2-2.3,6,1.3"/>
						<path class="st0" d="M183.9,62.7c-2.5-1.3-6.8-0.1-8.9,0.8"/>
						<path class="st0" d="M167.7,64.7c1.3-0.1,3.7-0.7,7.3-1.2"/>
						<path class="st0" d="M166.3,62.5c-1.4-1.7-2.7-3.5-4.1-3.3"/>
						<path class="st0" d="M162.2,59.2c-1.4,0.8-2.1,4.9-2.2,6.4"/>
						<path class="st0" d="M160,65.6c1.6,3.1,4.5,5,5.5,7.6"/>
						<path class="st0" d="M160.6,66.6c1.3,0,4.6,0.1,9.1,0.3"/>
						<path class="st0" d="M160,65.6c-2.3-1.6-3.4-3.8-4.6-3.2"/>
						<path class="st0" d="M155.4,62.4c-1.2,1.3-1.1,4.5-1.1,6.5"/>
						<path class="st0" d="M154.3,68.9c-0.3,2.6,7.4,8.7,6.6,11.2"/>
						<path class="st0" d="M154.3,68.9c2.7,1.2,8.3,3.1,10.5,3"/>
						<path class="st0" d="M154.5,70c-1.8-1-4.2-4.6-5.3-3.7"/>
						<path class="st0" d="M149.3,66.3c-0.8,0.3-1.2,6.6-0.9,8.4"/>
						<path class="st0" d="M158.6,78.2c-2.5-2.1-6.7-3.4-10.2-4.8"/>
						<path class="st0" d="M143.6,70.9c3.8,1.5,10.9,10.4,14.3,17.1"/>
						<path class="st0" d="M143.6,70.9c-1.3,0-1,6.6-1,8.9"/>
						<path class="st0" d="M143.6,70.9c5.3,7.1,10.2,10.6,14.3,17.1"/>
						<path class="st0" d="M137.4,77.3c10.5,2.5,9.1,13.2,16.8,17.6"/>
						<path class="st0" d="M142.6,77.9c3.9,1,7.6,4.5,11.9,5.5"/>
						<path class="st0" d="M144.3,81.5c5.5-0.1,6.9,4,9.4,5.5"/>
						<path class="st0" d="M137.4,77.3c-0.4,2.9-0.1,6.2,1,7.5"/>
						<path class="st0" d="M138.4,84.8c-0.2,0-1.4,0.8-1.6,1.3"/>
						<path class="st0" d="M138.4,84.8c2.4,1,5.8,4.5,11.5,6"/>
						<path class="st0" d="M137.4,77.3c3.3,3.4,7.8,9.9,10.8,10.7"/>
						<path class="st0" d="M132.5,85.3c5.9-0.7,16.3,9,19.8,10.1"/>
						<path class="st0" d="M145.1,90.9c1.8,2,2.6,3.7,3.6,5.9"/>
						<path class="st0" d="M138.3,86.7c3.2,4.6,6.9,10,8.3,13.1"/>
						<path class="st0" d="M132.5,85.3c-0.4,2.8,0.6,5.9,1.6,7"/>
						<path class="st0" d="M132.5,85.3c3.6,3.9,11.2,12.4,13.4,13.2"/>
						<path class="st0" d="M133.8,92.1c3.7,2.1,12.1,7.7,16,9.2"/>
						<path class="st0" d="M149.6,103.8c-4.6-2-17.9-12.9-21.5-9.8"/>
						<path class="st0" d="M133.8,91.9c0,1.1-0.7,2-1.6,2"/>
						<path class="st0" d="M138.5,97c2.4,2.9,5.4,8.1,6.3,7.8"/>
						<path class="st0" d="M134.2,94.7c4.2,5.1,7.2,10.7,7.5,12.5"/>
						<path class="st0" d="M128.1,94c-1.3,6.8,10.4,11.3,18.1,15.5"/>
						<path class="st0" d="M128.1,94c2,3.7,7.3,6.9,11,11.8"/>
						<path class="st0" d="M124.4,103.1c5.1-3.5,14.4,6,22,9.3"/>
						<path class="st0" d="M127.8,102.4c1.7-0.2,2-2.1,2.1-2.9"/>
						<path class="st0" d="M124.4,103.1c-1.4,6,13.4,12.5,19.7,16.1"/>
						<path class="st0" d="M133.6,104.7c2.3,3.9,6.5,9.5,7.8,9.5"/>
						<path class="st0" d="M131.1,103.4c3.3,5.8,7.7,9.8,8.3,13.2"/>
						<path class="st0" d="M121.5,113.1c5.2-5.4,13.4,4,22.6,8.1"/>
						<path class="st0" d="M121.5,113.1c-0.2,3.5,11.8,10,21.1,15.2"/>
						<path class="st0" d="M129.3,112.6c1,2.3,9,11.9,9.9,13.8"/>
						<path class="st0" d="M142.4,122.2c-0.6,0.2-1.9,0.5-5.7,0.5"/>
						<path class="st0" d="M126.2,107.8c0,1.5,0.1,3-0.6,3.6"/>
						<path class="st0" d="M119.9,122.1c6.1-3.8,10.2,1.3,22.6,8.2"/>
						<path class="st0" d="M119.9,122.1c-1.9,3.3,11.5,9.8,17.8,12.8"/>
						<path class="st0" d="M118.1,132.8c4-6.7,10.1-1.2,23.6,6.7"/>
						<path class="st0" d="M123,126.8c0,1.7-0.1,3-0.3,3"/>
						<path class="st0" d="M129.9,130.9c0,0.7-0.2,1.3-0.5,1.3"/>
						<path class="st0" d="M136.3,134.2c0,0.8-0.4,1.5-0.9,1.5"/>
						<path class="st0" d="M118.1,132.8c1.2,2.2,9.7,7.8,19.5,11.2"/>
						<path class="st0" d="M125.4,130.4c3,4.9,6.8,8.3,9.7,12.7"/>
						<path class="st0" d="M139.5,141.5c-0.6,0-1.8,0.9-4.8,0.8"/>
						<path class="st0" d="M118.1,142.9c0-2.7,3-4.8,6.7-4.8"/>
						<path class="st0" d="M123.3,138.2c4.3,3.1,12.9,7.4,18.5,9.9"/>
						<path class="st0" d="M118.1,142.9c4.5,4.5,18.2,9.6,24.8,13.4"/>
						<path class="st0" d="M124.8,138c0,3.3,9.3,12.2,12.2,15.2"/>
						<path class="st0" d="M138.1,146.4c-0.4,0.9-3.9,1.9-5.2,2.7"/>
						<path class="st0" d="M140.1,150.1c-0.8,0-2.5,1-4.1,2.2"/>
						<path class="st0" d="M118.9,151.8c0.6-2.5,2.2-4.4,4.8-5"/>
						<path class="st0" d="M118.9,151.8c5,5.1,17.1,6.4,21,10.2"/>
						<path class="st0" d="M120.2,148.9c0-0.1,2.6-1.1,6.3-0.7"/>
						<path class="st0" d="M125.7,148.2c3.7,4.5,6.3,7.2,9.3,11"/>
						<path class="st0" d="M137.8,160.5c0.8-0.8,1.6-1.2,2.9-1.3"/>
						<path class="st0" d="M120.8,159.8c0.5-2.3,1.8-3.4,4.2-4.3"/>
						<path class="st0" d="M120.8,159.8c1.5,2.8,6,4.7,14.7,5.6"/>
						<path class="st0" d="M127.7,156.6c4.7,5.3,8.2,10.5,15.2,14.2"/>
						<path class="st0" d="M139,168.4c1.7,0.5,1.9-1.4,4.2-1.4"/>
						<path class="st0" d="M125.8,163.5c-1.1,0-2.5,2.6-2,4.6"/>
						<path class="st0" d="M123.8,168.1c1.5,1.6,5.8,3.3,13.8,3.5"/>
						<path class="st0" d="M131.2,164.9c4.8,5.4,9,10.1,14.9,12.8"/>
						<path class="st0" d="M142.5,175.6c1.8-0.4,2.1-1.8,3.7-2"/>
						<path class="st0" d="M128.2,170.4c-0.2,1.4-5.4,6.8,12.4,6.8"/>
						<path class="st0" d="M131.4,176.4c0,2.8-1.8,5.7,13.5,5.1"/>
						<path class="st0" d="M136.4,181.3c0,1.7-0.9,4.3,12,3.1"/>
						<path class="st0" d="M135.5,171.5c8.2,9.8,17.9,18.4,25.2,18.4"/>
						<path class="st0" d="M142,184.7c0,1.4,1.4,2.5,10.6,2.5"/>
						<path class="st0" d="M150.3,178.5c-1.1,0.3-3.4,4.5-5,3.2"/>
						<path class="st0" d="M154.9,182.7c-3,2.5-2.4,4-4.1,3.4"/>
						<path class="st0" d="M160.2,186c-2.7,1.6-1.6,3.1-3.7,3.1"/>
						<path class="st0" d="M160.7,190c0,0.8,2.5,1.4,5.6,1.4"/>
						<path class="st0" d="M163.4,191.2c0-1.3,0.6-2.4,2.2-2.4"/>
						<path class="st0" d="M166.3,191.4c1.4-0.5,3.2,0.1,6.4,0.3"/>
						<path class="st0" d="M169.8,191.4c0-1.2,0.5-2.2,1.6-2.2"/>
						<path class="st0" d="M174,189.8c1.3,0.4,4.8-0.1,5.9-0.2"/>
						<path class="st0" d="M176.1,190c0-1.1,0.7-1.9,1.6-1.9"/>
						<path class="st0" d="M180.8,187.1c1.8,0.5,4.3-0.6,5.5-0.3"/>
						<path class="st0" d="M183.8,184.9c0,1.2-0.4,2.2-0.8,2.2"/>
						<path class="st0" d="M187.2,182.9c2.3,0.7,2.3-0.4,5.2-0.4"/>
						<path class="st0" d="M189.8,180.6c0,1.3,0,2.3,0,2.3"/>
						<path class="st0" d="M192.9,177.7c3.4,0.4,2.6-0.8,5.9-0.8"/>
						<path class="st0" d="M195.7,175.6c0,1.1-0.1,2-0.3,2"/>
						<path class="st0" d="M198.8,171c2.1,0,4-0.3,5.3-0.7"/>
						<path class="st0" d="M201.2,169.4c0,0.8,0.1,1.4,0.3,1.4"/>
						<path class="st0" d="M203.6,163.6c2,0,3.5-0.3,5.1-0.9"/>
						<path class="st0" d="M206.1,162.5c0,0.5,0,0.9-0.1,0.9"/>
						<path class="st0" d="M205.3,71.2c0-0.1-1.4-0.5-2.8-0.5"/>
						<path class="st0" d="M200.3,67.4c0,0.2-1.4,0.3-3.2,0.3"/>
						<path class="st0" d="M194.8,64.5c-0.8,0.3-1.5,1.7-3.5,1.7"/>
						<path class="st0" d="M188.9,64.1c-0.7,0.6-2.2,1.9-3.7,1.9"/>
						<path class="st0" d="M182.9,64.8c-1.2,0.6-2.2,2.1-4,2.2"/>
						<path class="st0" d="M176.5,67c-1.1,0.6-2.4,2.8-4.1,3.1"/>
						<path class="st0" d="M176.2,71c-0.6,0.1-1.4,0.2-3.1,0.2"/>
						<path class="st0" d="M181.9,69.1c-0.3,0.2-1,0.3-2.1,0.3"/>
						<path class="st0" d="M187.7,68.3c0,0.1-0.9,0.2-2,0.2"/>
						<path class="st0" d="M193.3,68.6c0-0.1-0.8-0.1-1.7-0.1"/>
						<path class="st0" d="M197.1,69.4c0.2,0.3,0.8,0.4,1.8,0.4"/>
						<path class="st0" d="M207.1,73.8c0,0.8,1.1,1.4,2.4,1.4"/>
						<path class="st0" d="M211.3,78.1c0,1.1,1,2,2.6,2"/>
						<path class="st0" d="M214.5,85.2c0.9,1.4,1.5,1.4,2.6,2.1"/>
						<path class="st0" d="M170.2,70.9c-0.9,0.6-2.2,2.4-3.9,3"/>
						<path class="st0" d="M169.9,74.8c0,0.5-0.8,1-1.8,1"/>
						<path class="st0" d="M164.1,76.3c-0.6,0.4-1.5,2.1-3.5,2.1"/>
						<path class="st0" d="M162.1,81.1c0.8-1,1.6-1.2,2.2-1.2"/>
						<path class="st0" d="M158.5,82.5c-0.5,0.2-1,1.9-2.7,1.9"/>
						<path class="st0" d="M153.3,90c-0.9,0.3-1.3,1.6-2.9,1.6"/>
						<path class="st0" d="M148.9,98.3c-0.5,0.6-1.2,1.2-2.3,1.5"/>
					</g>
					<path class="st0" d="M236.5,85.4c3,10.7-1.8,24.5-4.5,25.9"/>
					<path class="st0" d="M231.3,101.4c0,11.7,2.4,18,7.1,18.9c3.2,0.6,12.4-12.1,12.4-23.8s-3.3-18.6-6.5-18.6
						S231.3,89.7,231.3,101.4z"/>
					<path class="st0" d="M226,118.8c-1.4-0.6-4.9,2.9-6.2,2.3"/>
					<path class="st0" d="M223.7,113.6c0.3,2.7-7.4,6.4-4,7.5"/>
					<path class="st0" d="M223.7,113.6c0-1.6-5.3-0.3-4.9-3"/>
					<path class="st0" d="M218.8,110.5c1.1-1.5,2.8-2.8,4.1-3.5"/>
					<path class="st0" d="M222.9,107c0.5-0.8,0.4-2.6,0-3.6"/>
					<path class="st0" d="M222.9,103.5c0-0.2-2.8-0.2-4.4-0.4"/>
					<path class="st0" d="M218.5,103.1c-1-2.1,0.9-2.9,5-5.6"/>
					<path class="st0" d="M223.4,97.4c0.8-0.6,0.8-1.5,0.2-2.6"/>
					<path class="st0" d="M223.6,94.9c-0.5-0.6-1.7-0.7-2.6-2.3"/>
					<path class="st0" d="M221.1,92.6c-0.4-1.2,0.4-2.5,0.6-2.7"/>
					<path class="st0" d="M221.7,89.9c0.3-0.4,2.8-0.8,4.1-0.3"/>
					<path class="st0" d="M225.8,89.6c0.4-0.8,0.6-1.3,0.8-2.3"/>
					<path class="st0" d="M226.6,87.3c-1.2-1.6-1.8-3.7-2.3-5.3"/>
					<path class="st0" d="M224.3,82c0-0.7,0.5-1.3,1.2-1.3"/>
					<path class="st0" d="M225.5,80.7c1.3,0,3.4,0.6,4.2,1.2"/>
					<path class="st0" d="M229.6,82c0.3-0.7,0.6-1.4,1-1.8"/>
					<path class="st0" d="M230.6,80.3c-1-3.2-1-6.2-1-7"/>
					<path class="st0" d="M229.6,73.3c0-0.4,1-1.3,1.7-0.8"/>
					<path class="st0" d="M231.3,72.5c1.4,1,2.4,2.7,2.8,3.6"/>
					<path class="st0" d="M234.1,76.1c0.2-0.7,0.6-1,1.3-1"/>
					<path class="st0" d="M235.4,75.2c0.1-2.4,0-4.6,0.4-6.7"/>
					<path class="st0" d="M235.8,68.5c0-0.6,0.8-1.1,1.7-1.1"/>
					<path class="st0" d="M237.4,67.4c1.2,2.1,1.8,4.2,1.8,4.4"/>
					<path class="st0" d="M239.2,71.8c0.7,0,1.4-0.3,1.8-0.8"/>
					<path class="st0" d="M241,71c0.3-3,1.1-5.3,1.7-6.6"/>
					<path class="st0" d="M242.7,64.4c0.1-0.2,0.5-0.4,1.1-0.4"/>
					<path class="st0" d="M243.8,63.9c1.1,2.2,0.2,6.4,1.1,6.5"/>
					<path class="st0" d="M244.9,70.4c2.5,1.3,2.1-6,4.6-6"/>
					<path class="st0" d="M249.5,64.4c1.3,0.3-0.4,7.5,1.3,7.5"/>
					<path class="st0" d="M250.8,71.9c1.2,0.2,2.1-4.8,4.7-4.8"/>
					<path class="st0" d="M255.5,67.1c0.9,4.3-2.5,6.6-0.4,9"/>
					<path class="st0" d="M255.1,76.1c1.1-1.1,2.2-3.6,5-3.6"/>
					<path class="st0" d="M260.1,72.5c0,3.8-3.3,5.9-2.3,8.8"/>
					<path class="st0" d="M257.8,81.3c0.4,1.2,2.7-2.5,4.2-0.8"/>
					<path class="st0" d="M262,80.5c1.5,2.4-1.5,5.2-2.9,6.4"/>
					<path class="st0" d="M259.1,86.9c0,0.8,0,1.3,0.2,2.1"/>
					<path class="st0" d="M259.3,89c1.6,0.3,3,0.6,4.2,0.8"/>
					<path class="st0" d="M263.5,89.8c0.4,0.8,0,1.9,0,1.9"/>
					<path class="st0" d="M263.5,91.7c-0.7,1-3.3,2.7-4.4,3.5"/>
					<path class="st0" d="M259.1,95.2c-0.2,1-0.2,2,0,2.7"/>
					<path class="st0" d="M259.1,97.9c0.7,0.3,2.2,0.8,3.5,1.2"/>
					<path class="st0" d="M262.6,99.1c0.4,0.9-0.1,2.3-0.3,2.7"/>
					<path class="st0" d="M262.3,101.8c-0.5,0.8-2,1.7-4.5,1.7"/>
					<path class="st0" d="M257.8,103.5c-0.6,0.5-1.1,1.7-0.6,2.6"/>
					<path class="st0" d="M257.2,106.1c2.1,1.9,2.5,2.4,2.1,6.2"/>
					<path class="st0" d="M259.3,112.3c-1,0.4-2.6,0.3-4.5-0.3"/>
					<path class="st0" d="M254.8,112c-0.6,0.1-1,0.7-1.1,1.4"/>
					<path class="st0" d="M253.7,113.4c1.4,3.2,1.7,5.9,1.1,7.5"/>
					<path class="st0" d="M254.8,120.9c-2,0.1-2.6-0.8-4.1-2.1"/>
					<path class="st0" d="M250.8,118.8c-1,0.4-1.7,0.6-1.6,1.7"/>
					<path class="st0" d="M249.2,120.5c1,4.2,0.5,7.3-0.5,7.3"/>
					<path class="st0" d="M248.7,127.8c-2.4-0.4-2.7-4.4-3.4-4.2"/>
					<path class="st0" d="M245.3,123.6c-3.6,0.8-0.4,7.4-3,8.5"/>
					<path class="st0" d="M242.3,132.1c-3.1,0.8,0-5.8-3.4-5.5"/>
					<path class="st0" d="M238.9,126.6c-1.3,0-1.1,6.6-3.4,6.8"/>
					<path class="st0" d="M235.5,133.4c-2,0.4,0.4-6.4-1.6-6.7"/>
					<path class="st0" d="M233.9,126.7c-1.9-0.3-2.3,6.3-4.7,5.6"/>
					<path class="st0" d="M229.2,132.3c-1.9-0.5,2.2-7.7,0-8.2"/>
					<path class="st0" d="M229.2,124.1c-1.4-0.6-3.2,4.3-4.9,3.8"/>
					<path class="st0" d="M224.3,127.9c-2.3-0.4,2.9-7.9,1.7-9.1"/>
				</g>
				<path class="st0" d="M220.6,126.2c0.4,0.9,1.6,1.5,3.7,1.7"/>
				<path class="st0" d="M216.8,128.7c3.4,1.3,11.7,4.2,18.7,4.7"/>
				<path class="st0" d="M237,131.8c1.1,0.5,2.2,0.6,4.2,0.2"/>
				<path class="st0" d="M243.5,128.1c1.8,0.1,2.5,0,4.7-0.5"/>
				<path class="st0" d="M249.3,121.2c1.1,0,2.9,0,4.8-0.3"/>
				<path class="st0" d="M259.2,72.6c0-0.1-2.5-0.8-4.4-0.2"/>
				<path class="st0" d="M255,67.2c0-0.2-2.2-0.3-5-0.3"/>
				<path class="st0" d="M248.9,64.5c-1-0.4-2.3-0.6-5.2-0.6"/>
				<path class="st0" d="M243.8,63.9c-1.1-0.4-8.9-3.6-16.6-4.5"/>
				<path class="st0" d="M242.7,64.4c-2-0.4-7.8-2.3-15.5-4.9"/>
				<path class="st0" d="M237.4,67.4c-0.3-0.9-7.8-4.5-15.6-7.1"/>
				<path class="st0" d="M235.8,68.5c-0.1-0.8-7.3-4.9-15-7.5"/>
				<path class="st0" d="M231.3,72.5c-3.6-2.1-10.5-5.8-16-8.3"/>
				<path class="st0" d="M229.6,73.3c-3.6-2.1-9.7-5.5-15.2-8.1"/>
				<path class="st0" d="M225.8,61.7c0.4-0.9,0.8-1.7,1.4-2.3"/>
				<path class="st0" d="M219.5,66.2c0-3.3,1.1-5.9,2.4-5.9"/>
				<path class="st0" d="M225.5,80.7c-6-4.2-10.3-7.1-16.6-10.8"/>
				<path class="st0" d="M224.3,82c-2.6-1.7-6.6-4.3-12.3-7.4"/>
				<path class="st0" d="M211,73.8c-1.3-0.8-2.2-1.2-3.3-2"/>
				<path class="st0" d="M208.9,69.9c-0.4,0.4-1.1,1.5-1.5,2.6"/>
				<path class="st0" d="M214.1,73c0-4.8-0.5-9,1.2-8.8"/>
				<path class="st0" d="M230.4,79.7c-2.8-1.2-11.8-6.2-16.3-8.7"/>
				<path class="st0" d="M216.1,81.1c2.7,1.7,7.6,4.6,10.6,6.2"/>
				<path class="st0" d="M215.2,83.5c2.9,1.7,8.7,4.8,10.6,6.1"/>
				<path class="st0" d="M219,88.7c1,0.4,1.9,0.8,2.7,1.2"/>
				<path class="st0" d="M218.3,90.4c0.7,0.5,1.8,0.9,2.7,0.8"/>
				<path class="st0" d="M217.5,91.9c0.7,0.7,3,1.3,4.1,1.5"/>
			</g>
			<path class="st0" d="M266.5,92.2c-1.4,1.3-3.9,3.3-4.2,5.8"/>
			<path class="st0" d="M262.3,97.9c0,0-0.7,2.5,4.1,0.8"/>
			<path class="st0" d="M266.4,98.7c1.5,0.2-0.1,3.5-1.5,4.9"/>
			<path class="st0" d="M264.9,103.6c-0.9,1-1.1,3.3-0.6,3.3"/>
			<path class="st0" d="M264.3,106.9c1.9,0.7,2.9-0.7,4.2-0.2"/>
			<path class="st0" d="M268.5,106.7c1.6,1.1,0.3,1.8-1.4,4.9"/>
			<path class="st0" d="M267.1,111.6c-0.5,1.1-1,2.4-0.6,3.3"/>
			<path class="st0" d="M266.5,114.9c1.7,1.4,3.3-2.4,5.2-1.5"/>
			<path class="st0" d="M271.7,113.4c1.6,1.2-2.6,4.4-1.4,8.1"/>
			<path class="st0" d="M270.3,121.5c1.4,2.1,2.9-3.5,5.2-2.4"/>
			<path class="st0" d="M275.5,119.1c1.6,1.3-2.6,6.4-0.9,8.2"/>
			<path class="st0" d="M274.6,127.3c2.6,0.5,2.2-4.3,4.9-3.9"/>
			<path class="st0" d="M279.5,123.4c1.9,0.5-2,6.3,0.2,7.8"/>
			<path class="st0" d="M279.7,131.2c1.9,0.9,2-5,4.7-4.3"/>
			<path class="st0" d="M284.4,126.9c1.8,0.5-0.9,6.4,0.7,7"/>
			<path class="st0" d="M285.1,133.9c2.2,0.9,1.7-5.4,4.8-5.2"/>
			<path class="st0" d="M289.9,128.7c1.8,0.1-0.4,6.2,1.3,6.7"/>
			<path class="st0" d="M291.1,135.4c2.8,0,1.2-6.5,4.3-6"/>
			<path class="st0" d="M295.4,129.4c1.9,0.2,0,5.9,2,5.8"/>
			<path class="st0" d="M297.4,135.2c2.6-0.3,0.9-6.1,3.9-6.4"/>
			<path class="st0" d="M301.3,128.8c2.1,0-0.4,3.6,2.8,4.8"/>
			<path class="st0" d="M304.1,133.6c2.6-1.2,0.4-6.9,3.3-7.3"/>
			<path class="st0" d="M307.3,126.3c2.6-0.3,0.7,4.4,2.7,4.1"/>
			<path class="st0" d="M310,130.4c3.5-0.2,0.3-6.9,3.2-7.6"/>
			<path class="st0" d="M313.2,122.8c1.3-0.3,1.2,3.1,3.8,2.7"/>
			<path class="st0" d="M316.9,125.5c0.5-0.5,0.5-6.5,0.8-6.8"/>
			<path class="st0" d="M317.7,118.7c0.3-0.3,1.1-0.9,1.6-1.1"/>
			<path class="st0" d="M319.3,117.6c1.1,0,1.7,2.9,3.7,2.9"/>
			<path class="st0" d="M323,120.5c1.4-0.8,0-7.1,0.1-7.3"/>
			<path class="st0" d="M323.1,113.2c0.1-0.3,1-1.5,1.5-1.5"/>
			<path class="st0" d="M324.6,111.7c1.3,0.2,1.3,2.1,3.8,1.9"/>
			<path class="st0" d="M328.1,106.6c-0.1,1.8,2.2,5.1,0.3,7"/>
			<path class="st0" d="M328.1,106.6c0.2-1.7,1-2.2,2-1.7"/>
			<path class="st0" d="M330.1,104.9c0.2,0.1,2.4,1.7,3.7,0.2"/>
			<path class="st0" d="M333.8,105.1c0.7-1.9-1.3-3.9-0.9-6.7"/>
			<path class="st0" d="M332.9,98.4c0.1-0.7,0.3-1.3,1.1-1.3"/>
			<path class="st0" d="M334,97.1c3.7,0.7,4.4-0.6,4.6-1.3"/>
			<path class="st0" d="M338.6,95.8c0.7-2.2-2.6-3.6-2.1-5.7"/>
			<path class="st0" d="M336.5,90.1c1.1-3.3,4.8-0.9,5.8-3.4"/>
			<path class="st0" d="M342.3,86.7c0.6-2.7-2.7-2.3-2.7-5.1"/>
			<path class="st0" d="M339.6,81.6c0.2-3.6,3.1-1.1,5.2-4.5"/>
			<path class="st0" d="M344.8,77.1c0.8-2.1-3.7-2-3.3-4.8"/>
			<path class="st0" d="M341.5,72.3c0.1-2.3,4.5-2.9,4.9-4.7"/>
			<path class="st0" d="M346.4,67.6c0.2-2.7-3.5-0.5-3.7-4"/>
			<path class="st0" d="M342.7,63.6c-0.1-2.8,2.8-1.2,4.4-5.6"/>
			<path class="st0" d="M347.1,58c0.8-2.4-3.3-1.7-3.5-2.2"/>
			<path class="st0" d="M343.6,55.8c-1.3-3.1,3.6-5.3,3.7-6.9"/>
			<path class="st0" d="M347.3,48.9c0.5-2.8-4.4-0.8-4.6-1.6"/>
			<path class="st0" d="M342.7,47.3c-1-2.6,4.2-6.7,3.5-7.9"/>
			<path class="st0" d="M341.5,39.7c-2.3-0.8,2.9-6.8,2.5-8.5"/>
			<path class="st0" d="M344,31.2c-0.7-1.8-4.4,2.3-5.2,1.1"/>
			<path class="st0" d="M338.8,32.3c-1.3-1.4,2.9-7.1,1.9-8.4"/>
			<path class="st0" d="M340.7,23.9c-0.6-1.1-4,2.9-5.5,1.6"/>
			<path class="st0" d="M335.2,25.5c-1-0.7,2.8-7.1,1.4-7.7"/>
			<path class="st0" d="M336.6,17.8c-1.6-1-3.9,4.1-5,3.4"/>
			<path class="st0" d="M331.6,21.2c-1.6-0.9,1.7-7.8-0.3-8.4"/>
			<path class="st0" d="M331.2,18.9c0.6,0.5,1.4,1,2.2,1.1"/>
			<path class="st0" d="M331.3,12.8c-2-0.4-2.7,5.1-4.5,4.5"/>
			<path class="st0" d="M326.8,17.3c-1.4-0.3,0.9-7.6-1-8"/>
			<path class="st0" d="M326.4,14.2c1.1,0,1.7,0.3,2.8,0.5"/>
			<path class="st0" d="M325.8,9.3c-1.7-0.5-2.1,5.6-4.1,5.3"/>
			<path class="st0" d="M321.7,14.6c-2,0,0.7-6.9-1.6-7.3"/>
			<path class="st0" d="M324.2,10.9c-0.6,0.4-0.9,0.9-3.2,1.3"/>
			<path class="st0" d="M325.8,9.3c-2-0.5-2.7,0.8-4.8,0.8"/>
			<path class="st0" d="M320.1,7.3c-1.7-0.4-1.9,6.1-4.1,6"/>
			<path class="st0" d="M316,13.3c-2,0,0.6-6.4-2.1-6.7"/>
			<path class="st0" d="M318.5,9.2c-0.7,0.6-1.5,1-3.4,1.4"/>
			<path class="st0" d="M320.1,7.3c-1.8-0.9-2.9-0.1-4.9,0.6"/>
			<path class="st0" d="M313.9,6.6c-1.6-0.2-1.4,7.1-3.7,7.1"/>
			<path class="st0" d="M310.2,13.7c-1.9-0.2-0.7-6.4-2.8-6"/>
			<path class="st0" d="M307.4,7.7c-1.5,0.1-1.1,7.5-3,7.2"/>
			<path class="st0" d="M304.4,14.9c-1.4,0.2-1.2-4.9-3.8-4.8"/>
			<path class="st0" d="M313.9,6.6c-1.1-0.6-3.6-1.1-6.5,1.1"/>
			<path class="st0" d="M300.6,10.1c-1.3,0.6-0.2,7.7-2.4,7.9"/>
			<path class="st0" d="M312.6,8.7c-1,0.6-1.8,1.2-3.7,1.9"/>
			<path class="st0" d="M306.2,10.1c-0.7-0.1-2.6,1.9-3.5,1.9"/>
			<path class="st0" d="M298.2,18c-1.4,0.2-1.5-4.3-3.5-3.9"/>
			<path class="st0" d="M299.9,12c-0.7,0.6-1.9,2.4-3.7,2.9"/>
			<path class="st0" d="M300.6,10.1c-5.2-3.7-5.4-8.2-8.6-7.8"/>
			<path class="st0" d="M292,2.3c-1.1,0.4-1.7,3.4-2.2,5.2"/>
			<path class="st0" d="M296,5.3c2.2-3.7,2.1-5.1,7.8,1.3"/>
			<path class="st0" d="M303.1,5.9c0.2-3.6,3-2.1,6,0.8"/>
			<path class="st0" d="M298.5,8.3c1.1-0.7,6.9-3.1,9.3-0.9"/>
			<path class="st0" d="M294.7,14.1c-1.5,0.9,0.3,6.7-1.7,7.6"/>
			<path class="st0" d="M293,21.7c-2.5,0.9-2.6-3.7-4.6-2.5"/>
			<path class="st0" d="M294.7,14.1c-2.6-2.8-7.2-10.9-9.2-10.3"/>
			<path class="st0" d="M298.5,8.3c-1.3-0.2-6.3,1-7.6,0.7"/>
			<path class="st0" d="M294,15.8c-1,0.3-2.8,3.2-4.2,3.5"/>
			<path class="st0" d="M292.7,11.5c0,0.1-3.7,0.2-8.3,0.2"/>
			<path class="st0" d="M290.3,19.1c-3.7-4.2-9.3-12.8-11.4-12.2"/>
			<path class="st0" d="M285.5,3.8c-1,0.1-2,4.5-2,6.8"/>
			<path class="st0" d="M288.4,19.2c-1.5,0.9,0.5,7.5-1.5,8.4"/>
			<path class="st0" d="M286.9,27.6c-1.2-1.8-12.2-17.9-14.3-16.3"/>
			<path class="st0" d="M286.9,27.6c-0.8,0.4-2.3-3.1-4.1-2.3"/>
			<path class="st0" d="M282.8,25.3c-1.5,1.1,0.9,7.9-1,8.6"/>
			<path class="st0" d="M287.8,21.2c-0.7,0.2-2.1,2.5-3.4,2.8"/>
			<path class="st0" d="M277,14.4c4,0,9.8,2.9,11.9,3"/>
			<path class="st0" d="M278.9,6.9c-1.4,0.8-0.9,6.4-1.9,7.5"/>
			<path class="st0" d="M281.8,33.9c-0.8,0.4-3-2.2-4.5-1.2"/>
			<path class="st0" d="M277.3,32.7c-1.1,1.7,1.5,6.4,0.7,7.4"/>
			<path class="st0" d="M281.8,33.9c-1.1-2.8-12.7-20.1-15.4-17.1"/>
			<path class="st0" d="M272.6,11.3c-1.1,0.7,0,5.6-1.4,7.9"/>
			<path class="st0" d="M271.7,18c5.3,2.7,8.6,4.2,12.7,6"/>
			<path class="st0" d="M282.3,26.9c-0.3,1.2-1.5,2.3-2.8,3.1"/>
			<path class="st0" d="M266.4,16.8c-1.3,1.1-0.1,8-0.1,8.6"/>
			<path class="st0" d="M266,23c3.9,1.8,9.9,5.4,13.7,7.2"/>
			<path class="st0" d="M266.4,16.8c5.6,4.6,11.2,11.8,13.1,13.3"/>
			<path class="st0" d="M278,40.1c-0.8,1.9-4.9,0.1-5.4,1.1"/>
			<path class="st0" d="M272.6,41.2c-1.3,3.3,2.9,5.3,1.3,7.1"/>
			<path class="st0" d="M261,23.1c6.1-1.5,12.4,14.1,17,17.1"/>
			<path class="st0" d="M266.3,25.3c5.4,1.9,10.7,5.8,11,7.3"/>
			<path class="st0" d="M277.1,35.1c-0.5,0.6-0.9,1.2-2.2,1.7"/>
			<path class="st0" d="M261,23.1c-3.6,9.3,11.8,12.1,17,17.1"/>
			<path class="st0" d="M261,23.1c5.6,5.7,11.8,12.2,13.9,13.7"/>
			<path class="st0" d="M277,40.9c-5.4-2-17.5-12-21.3-10.2"/>
			<path class="st0" d="M273.9,48.3c-1.1,1.8-4.9,0.2-5.5,2"/>
			<path class="st0" d="M268.4,50.3c-0.7,2.4,3.3,4.2,2.4,6.2"/>
			<path class="st0" d="M274.2,47c-6.5-4.1-21.2-8.5-18.5-16.3"/>
			<path class="st0" d="M255.8,30.7c1.8,2.5,10.6,10.9,12.2,13"/>
			<path class="st0" d="M263.1,32.8c2,6.2,5.4,7.3,7,12"/>
			<path class="st0" d="M267.1,35.2c3.6,2.9,4.9,7.7,5.6,8.8"/>
			<path class="st0" d="M273.3,48.8c-5.6-1.7-16.4-12.2-21.8-9.7"/>
			<path class="st0" d="M256.9,36.4c0,1-0.2,2.3-0.4,3"/>
			<path class="st0" d="M270.8,56.5c-0.6,2.1-4.5,0.7-5.4,3"/>
			<path class="st0" d="M265.4,59.5c-0.6,3.3,3.8,3.9,2.9,5.7"/>
			<path class="st0" d="M270.8,55.2c-9.2-4.9-21.6-9.7-19.3-16.1"/>
			<path class="st0" d="M251.5,39.1c4.5,6.1,9.9,10.1,14.5,13.7"/>
			<path class="st0" d="M259.1,40.6c2.2,6.3,6.3,8.9,7.7,12.5"/>
			<path class="st0" d="M262.7,42.6c1.1,2.6,5.1,7,5.7,7.7"/>
			<path class="st0" d="M266.7,48.3c0-0.1,2.1-0.1,4.7-0.3"/>
			<path class="st0" d="M270.1,57.3c-5.6-2.9-18-12.3-22.3-9.5"/>
			<path class="st0" d="M266.7,62.7c-10.9-5.8-20.6-10.5-18.9-14.9"/>
			<path class="st0" d="M247.9,47.8c2.9,5,8.7,9.4,14,12.3"/>
			<path class="st0" d="M255.3,48.8c3.7,5.6,5.8,8.5,8.3,12.2"/>
			<path class="st0" d="M257.2,49.7c3.1,4.3,5.8,7.9,8.4,9.3"/>
			<path class="st0" d="M263.6,57.6c1.7-0.1,2.8-0.2,6.4-0.2"/>
			<path class="st0" d="M268.3,65.1c-0.4,1.8-3.7,1.2-5.2,4.2"/>
			<path class="st0" d="M263.1,69.3c-0.8,1.7,2.6,3.2,3.5,3.4"/>
			<path class="st0" d="M266.6,72.7c0.4,3.3-1.4,2.1-5.1,5.5"/>
			<path class="st0" d="M261.5,78.2c-0.9,1.7,2,3.1,4.2,3.1"/>
			<path class="st0" d="M267.7,66c-5.7-1.8-18.5-14.4-23-8.2"/>
			<path class="st0" d="M263.1,70.3c-7-3.1-19.3-9.7-18.4-12.5"/>
			<path class="st0" d="M252.7,57.3c2.9,6.2,7.8,8.6,9.9,12.8"/>
			<path class="st0" d="M260.5,67.1c1.4,0.1,4-0.1,5.7-0.4"/>
			<path class="st0" d="M250,52.8c0,2.9-0.4,3.4-0.8,3.4"/>
			<path class="st0" d="M247.9,61.9c-0.1,1-0.3,1.9-0.6,2.2"/>
			<path class="st0" d="M251.3,64.1c0,0.4-0.6,0.8-1.4,0.8"/>
			<path class="st0" d="M255.6,69c2.9,1.1,7.7,4.4,11,5.3"/>
			<path class="st0" d="M259,76.5c1.7,0.1,3,0.2,5.1-0.2"/>
			<path class="st0" d="M265.7,81.3c0,1.5,0.3,2.1-0.4,2.8"/>
			<path class="st0" d="M265.3,84.1c-2.3,2.1-3.9,3.1-3.5,4.9"/>
			<path class="st0" d="M261.8,89c0.1,0.4,1.9,0.8,4.3,0.8"/>
			<path class="st0" d="M266.1,89.8c0.4,1.2,0.4,1.9,0.4,2.4"/>
			<path class="st0" d="M260.3,85.8c0,0,1.3,0,3,0"/>
			<path class="st0" d="M265.8,82.7c-0.7-0.2-1.6-0.2-3.4-0.2"/>
			<path class="st0" d="M259,96.5c1.9-0.3,2.2-1.6,4.8-1.6"/>
			<path class="st0" d="M262.5,97.1c0,0.1-1.5,0.4-3.5,0.1"/>
			<path class="st0" d="M264.3,106.9c-1.2-0.3-4-2.1-5-3.6"/>
			<path class="st0" d="M261.6,105.5c0.5-0.6,1.7-1.7,3.3-1.9"/>
			<path class="st0" d="M266.5,114.9c-1.6-0.4-3.8-2.2-7.1-4.7"/>
			<path class="st0" d="M264,113.6c0.7-0.9,1.6-1.9,3.1-2"/>
			<path class="st0" d="M270.3,121.5c-3.2-0.3-7.3-3.9-11.8-9"/>
			<path class="st0" d="M267.9,120.7c0-1.3,1-2.2,2.6-2.7"/>
			<path class="st0" d="M254.5,115.5c1.2,0,3.6,0.3,7.3,0.5"/>
			<path class="st0" d="M291.1,135.4c-9.4-0.3-14.6-2.3-32.3-19.6"/>
			<path class="st0" d="M264.6,121.5c-0.6,0.2-5.4,0.2-9.8-0.6"/>
			<path class="st0" d="M275.2,122.5c-0.8,1.1-2.5,3.9-5.6,3.4"/>
			<path class="st0" d="M274.6,127.3c-1.2-0.4-2.3-0.9-4.9-1.4"/>
			<path class="st0" d="M279.3,127.7c-1.4,0.1-1.2,2.3-3.4,3"/>
			<path class="st0" d="M255.6,121c-1.7,5.4,6.4,5.4,14.1,4.9"/>
			<path class="st0" d="M260.9,125.9c-1.2,4.1,5.9,3.3,12.6,3"/>
			<path class="st0" d="M266.8,129.2c-1.1,2.3,4.5,2.1,10.1,2.1"/>
			<path class="st0" d="M284.8,130.4c-0.8-0.1-1.9,3-3.8,3.1"/>
			<path class="st0" d="M290.5,132.2c-1.4,0.1-1.4,2.9-2.9,3"/>
			<path class="st0" d="M296.3,132.8c-0.6,0.4-1.4,1-1.4,2.5"/>
			<path class="st0" d="M292.1,135c0,0.1,3.8,0.7,5.3,0.2"/>
			<path class="st0" d="M302.3,131.4c0,1-0.8,3.1-3.6,2.3"/>
			<path class="st0" d="M304.1,133.6c-0.5,0.3-1.7,0.9-4.4,0.3"/>
			<path class="st0" d="M310,130.4c-0.8,0.4-2,0.8-4.5,0.8"/>
			<path class="st0" d="M308.8,127.7c0,1.7-0.4,2.9-1.4,3.3"/>
			<path class="st0" d="M314.8,124.4c0,1.3-0.1,2.2-0.1,2.2"/>
			<path class="st0" d="M316.9,125.5c-0.6,1-2.2,1.4-5.1,1.4"/>
			<path class="st0" d="M323,120.5c-0.5,0.3-2.5,0.7-5.5,0.7"/>
			<path class="st0" d="M320.6,118.8c0,1.3-0.1,2.3-0.1,2.3"/>
			<path class="st0" d="M328.4,113.6c-0.5,0.6-2.3,0.9-5.1,0.9"/>
			<path class="st0" d="M326.1,112.9c0,0.8-0.1,1.5-0.2,1.5"/>
			<path class="st0" d="M333.8,105.1c-1,1.5-2.6,1.5-5.7,1.5"/>
			<path class="st0" d="M341.5,39.7c0.9,0.5,3.9-1.4,4.7-0.3"/>
		</g>
		<g>
			<path class="st0" d="M300.7,32.8c12.1,23.7,1.5,57.8-13.9,74.3"/>
			<path class="st0" d="M283,66.9c-3.8,23.8,1.1,45.5,12.3,46.7c7.7,0.8,23.9-11.1,30.4-41.8c6-28-5.4-45.3-12.6-45.4
				C304.6,26.2,287,42.4,283,66.9z"/>
		</g>
	</g>
	<path class="st0" d="M260.8,31.6c0.1-0.8,0.4-2.2,0.4-3"/>
	<path class="st0" d="M252.7,47.8c0.2-0.7,0.4-2,0.5-3"/>
	<path class="st0" d="M123.3,120.8c0.8-1.5,0.9-2.7,0.5-4.2"/>
	<path class="st0" d="M137.7,134.9c-4.7-6.7-7-9.1-10.5-13.4"/>
	<path class="st0" d="M134,129.9c1.3,0.5,4.7,1.1,7.7,1.1"/>
	<path class="st0" d="M261.5,78.2c0-0.1-1.3-0.1-3.4-0.1"/>
	<line class="st0" x1="175.8" y1="87.9" x2="198.2" y2="88"/>
	<line class="st0" x1="176.4" y1="89.2" x2="198.9" y2="89.3"/>
	<line class="st0" x1="177.1" y1="86.7" x2="197.3" y2="86.7"/>
	<line class="st0" x1="178.5" y1="85.4" x2="196.3" y2="85.5"/>
	<line class="st0" x1="179.7" y1="84.4" x2="195.4" y2="84.5"/>
	<line class="st0" x1="181" y1="83.5" x2="194.3" y2="83.6"/>
	<line class="st0" x1="236.7" y1="86.1" x2="249.8" y2="86.2"/>
	<line class="st0" x1="236.5" y1="85.4" x2="249.6" y2="85.4"/>
	<line class="st0" x1="237" y1="84.6" x2="249.4" y2="84.7"/>
	<line class="st0" x1="237.5" y1="83.9" x2="249.1" y2="83.9"/>
	<line class="st0" x1="238" y1="83.2" x2="248.8" y2="83.2"/>
	<line class="st0" x1="238.5" y1="82.6" x2="248.7" y2="82.6"/>
	<line class="st0" x1="238.9" y1="82.1" x2="248.5" y2="82.1"/>
	<line class="st0" x1="239.3" y1="81.5" x2="248.2" y2="81.6"/>
	<line class="st0" x1="239.8" y1="81" x2="248" y2="81.1"/>
	<line class="st0" x1="240.4" y1="80.5" x2="247.6" y2="80.5"/>
	<line class="st0" x1="240.9" y1="80" x2="247.3" y2="80"/>
	<line class="st0" x1="241.4" y1="79.5" x2="247" y2="79.5"/>
	<line class="st0" x1="241.8" y1="79.1" x2="246.6" y2="79.1"/>
	<line class="st0" x1="242.4" y1="78.7" x2="246.2" y2="78.7"/>
	<line class="st0" x1="243" y1="78.3" x2="245.7" y2="78.3"/>
	<line class="st0" x1="236.9" y1="87.1" x2="250" y2="87.1"/>
	<line class="st0" x1="237.1" y1="88" x2="250.2" y2="88.1"/>
	<line class="st0" x1="237.2" y1="89" x2="250.3" y2="89"/>
	<line class="st0" x1="237.3" y1="90" x2="250.4" y2="90"/>
	<line class="st0" x1="237.5" y1="91.2" x2="250.6" y2="91.3"/>
	<line class="st0" x1="237.5" y1="92.4" x2="250.6" y2="92.5"/>
	<line class="st0" x1="237.5" y1="93.9" x2="250.7" y2="93.9"/>
	<line class="st0" x1="237.5" y1="95.4" x2="250.7" y2="95.5"/>
	<line class="st0" x1="237.2" y1="96.9" x2="250.8" y2="97"/>
	<line class="st0" x1="237.1" y1="98.3" x2="250.6" y2="98.4"/>
	<line class="st0" x1="236.8" y1="99.7" x2="250.5" y2="99.8"/>
	<line class="st0" x1="236.5" y1="101.2" x2="250.3" y2="101.2"/>
	<line class="st0" x1="236.3" y1="102.3" x2="250.1" y2="102.4"/>
	<line class="st0" x1="235.9" y1="103.5" x2="249.8" y2="103.5"/>
	<line class="st0" x1="235.7" y1="104.6" x2="249.5" y2="104.7"/>
	<line class="st0" x1="235.3" y1="105.5" x2="249.2" y2="105.5"/>
	<line class="st0" x1="235.1" y1="106.3" x2="249" y2="106.4"/>
	<line class="st0" x1="234.7" y1="107.2" x2="248.7" y2="107.2"/>
	<line class="st0" x1="234.4" y1="107.9" x2="248.3" y2="108"/>
	<line class="st0" x1="234.1" y1="108.7" x2="248" y2="108.7"/>
	<line class="st0" x1="233.6" y1="109.4" x2="247.7" y2="109.5"/>
	<line class="st0" x1="233.2" y1="110.2" x2="247.2" y2="110.2"/>
	<line class="st0" x1="232.6" y1="110.8" x2="247" y2="110.9"/>
	<line class="st0" x1="232.1" y1="111.5" x2="246.6" y2="111.5"/>
	<line class="st0" x1="232.3" y1="112.1" x2="246.3" y2="112.2"/>
	<line class="st0" x1="232.4" y1="112.8" x2="245.9" y2="112.8"/>
	<line class="st0" x1="232.6" y1="113.4" x2="245.6" y2="113.4"/>
	<line class="st0" x1="232.8" y1="114" x2="245.2" y2="114"/>
	<line class="st0" x1="232.9" y1="114.5" x2="244.8" y2="114.6"/>
	<line class="st0" x1="233.2" y1="115.1" x2="244.5" y2="115.1"/>
	<line class="st0" x1="233.4" y1="115.6" x2="244.1" y2="115.6"/>
	<line class="st0" x1="233.6" y1="116.2" x2="243.7" y2="116.2"/>
	<line class="st0" x1="234" y1="116.7" x2="243.2" y2="116.8"/>
	<line class="st0" x1="234.2" y1="117.3" x2="242.8" y2="117.3"/>
	<line class="st0" x1="234.6" y1="117.8" x2="242.3" y2="117.8"/>
	<line class="st0" x1="235" y1="118.3" x2="241.8" y2="118.3"/>
	<line class="st0" x1="235.7" y1="118.9" x2="241.3" y2="118.9"/>
	<line class="st0" x1="236.3" y1="119.4" x2="240.6" y2="119.4"/>
	<line class="st0" x1="237" y1="119.8" x2="240" y2="119.9"/>
	<line class="st0" x1="301.2" y1="33.9" x2="322.2" y2="33.9"/>
	<line class="st0" x1="301.6" y1="34.7" x2="322.6" y2="34.7"/>
	<line class="st0" x1="302" y1="35.6" x2="323" y2="35.6"/>
	<line class="st0" x1="302.3" y1="36.6" x2="323.5" y2="36.6"/>
	<line class="st0" x1="302.7" y1="37.7" x2="323.9" y2="37.7"/>
	<line class="st0" x1="303.1" y1="38.8" x2="324.4" y2="38.8"/>
	<line class="st0" x1="303.6" y1="40.2" x2="324.9" y2="40.2"/>
	<line class="st0" x1="304" y1="41.6" x2="325.4" y2="41.6"/>
	<line class="st0" x1="304.4" y1="43.1" x2="325.8" y2="43.1"/>
	<line class="st0" x1="304.7" y1="44.6" x2="326.1" y2="44.6"/>
	<line class="st0" x1="305.1" y1="46.3" x2="326.4" y2="46.3"/>
	<line class="st0" x1="305.3" y1="48" x2="326.8" y2="47.9"/>
	<line class="st0" x1="305.6" y1="49.7" x2="327" y2="49.7"/>
	<line class="st0" x1="305.7" y1="51.6" x2="327.2" y2="51.6"/>
	<line class="st0" x1="305.8" y1="53.4" x2="327.3" y2="53.4"/>
	<line class="st0" x1="305.9" y1="55.2" x2="327.3" y2="55.2"/>
	<line class="st0" x1="305.9" y1="57.3" x2="327.4" y2="57.2"/>
	<line class="st0" x1="305.8" y1="59.2" x2="327.3" y2="59.2"/>
	<line class="st0" x1="305.7" y1="61.2" x2="327.2" y2="61.1"/>
	<line class="st0" x1="305.6" y1="63" x2="327.1" y2="63"/>
	<line class="st0" x1="305.4" y1="64.8" x2="326.8" y2="64.8"/>
	<line class="st0" x1="305.2" y1="66.9" x2="326.6" y2="66.9"/>
	<line class="st0" x1="304.8" y1="68.6" x2="326.3" y2="68.6"/>
	<line class="st0" x1="304.4" y1="70.6" x2="326" y2="70.6"/>
	<line class="st0" x1="304" y1="72.7" x2="325.5" y2="72.7"/>
	<line class="st0" x1="303.6" y1="74.6" x2="325.1" y2="74.6"/>
	<line class="st0" x1="303" y1="76.7" x2="324.5" y2="76.6"/>
	<line class="st0" x1="302.5" y1="78.6" x2="324" y2="78.6"/>
	<line class="st0" x1="301.8" y1="80.5" x2="323.5" y2="80.5"/>
	<line class="st0" x1="301.3" y1="82.1" x2="323" y2="82.1"/>
	<line class="st0" x1="300.7" y1="83.8" x2="322.3" y2="83.8"/>
	<line class="st0" x1="300" y1="85.5" x2="321.8" y2="85.5"/>
	<line class="st0" x1="299.3" y1="87.2" x2="321.1" y2="87.2"/>
	<line class="st0" x1="298.5" y1="89" x2="320.4" y2="89"/>
	<line class="st0" x1="297.7" y1="90.8" x2="319.6" y2="90.8"/>
	<line class="st0" x1="296.9" y1="92.4" x2="318.8" y2="92.4"/>
	<line class="st0" x1="296.1" y1="94" x2="318" y2="94"/>
	<line class="st0" x1="295.2" y1="95.4" x2="317.2" y2="95.4"/>
	<line class="st0" x1="294.3" y1="97.1" x2="316.3" y2="97"/>
	<line class="st0" x1="293.3" y1="98.7" x2="315.3" y2="98.7"/>
	<line class="st0" x1="292.5" y1="99.8" x2="314.5" y2="99.8"/>
	<line class="st0" x1="291.9" y1="100.8" x2="313.9" y2="100.7"/>
	<line class="st0" x1="291.2" y1="101.7" x2="313.2" y2="101.7"/>
	<line class="st0" x1="290.6" y1="102.6" x2="312.5" y2="102.6"/>
	<line class="st0" x1="289.9" y1="103.5" x2="311.8" y2="103.5"/>
	<line class="st0" x1="289.3" y1="104.2" x2="311.2" y2="104.2"/>
	<line class="st0" x1="288.7" y1="104.9" x2="310.6" y2="104.9"/>
	<line class="st0" x1="288.1" y1="105.6" x2="310" y2="105.6"/>
	<line class="st0" x1="287.6" y1="106.2" x2="309.4" y2="106.2"/>
	<line class="st0" x1="287" y1="106.8" x2="308.8" y2="106.8"/>
	<line class="st0" x1="286.9" y1="107.4" x2="308.2" y2="107.4"/>
	<line class="st0" x1="287.2" y1="107.9" x2="307.6" y2="107.9"/>
	<line class="st0" x1="287.7" y1="108.6" x2="306.9" y2="108.6"/>
	<line class="st0" x1="288.2" y1="109.2" x2="306.1" y2="109.2"/>
	<line class="st0" x1="288.7" y1="109.9" x2="305.3" y2="109.8"/>
	<line class="st0" x1="289.3" y1="110.5" x2="304.4" y2="110.5"/>
	<line class="st0" x1="289.7" y1="110.9" x2="303.7" y2="110.9"/>
	<line class="st0" x1="290.2" y1="111.4" x2="303" y2="111.4"/>
	<line class="st0" x1="290.8" y1="111.8" x2="302.3" y2="111.8"/>
	<line class="st0" x1="291.4" y1="112.2" x2="301.4" y2="112.2"/>
	<line class="st0" x1="292.2" y1="112.7" x2="300.4" y2="112.7"/>
	<line class="st0" x1="293.2" y1="113.1" x2="299.2" y2="113.1"/>
	<line class="st0" x1="294.5" y1="113.5" x2="297.8" y2="113.5"/>
	<line class="st0" x1="300.9" y1="33.2" x2="321.8" y2="33.2"/>
	<line class="st0" x1="300.9" y1="32.6" x2="321.3" y2="32.6"/>
	<line class="st0" x1="301.6" y1="32" x2="320.9" y2="32"/>
	<line class="st0" x1="302.4" y1="31.4" x2="320.4" y2="31.3"/>
	<line class="st0" x1="303.2" y1="30.6" x2="319.9" y2="30.6"/>
	<line class="st0" x1="304.1" y1="30" x2="319.3" y2="30"/>
	<line class="st0" x1="305" y1="29.4" x2="318.8" y2="29.4"/>
	<line class="st0" x1="305.9" y1="28.8" x2="318.1" y2="28.8"/>
	<line class="st0" x1="307" y1="28.2" x2="317.4" y2="28.2"/>
	<line class="st0" x1="308.2" y1="27.6" x2="316.6" y2="27.6"/>
	<line class="st0" x1="309.2" y1="27.2" x2="315.9" y2="27.2"/>
	<line class="st0" x1="310.6" y1="26.8" x2="314.9" y2="26.7"/>
	<line class="st0" x1="182.2" y1="82.7" x2="193.1" y2="82.8"/>
	<line class="st0" x1="183.3" y1="82.2" x2="192" y2="82.2"/>
	<line class="st0" x1="184.5" y1="81.6" x2="190.7" y2="81.6"/>
	<line class="st0" x1="176.9" y1="90.4" x2="199.5" y2="90.5"/>
	<line class="st0" x1="177.5" y1="91.7" x2="200" y2="91.7"/>
	<line class="st0" x1="178" y1="93" x2="200.5" y2="93"/>
	<line class="st0" x1="178.5" y1="94.3" x2="200.9" y2="94.3"/>
	<line class="st0" x1="179" y1="95.6" x2="201.2" y2="95.6"/>
	<line class="st0" x1="179.4" y1="97" x2="201.6" y2="97"/>
	<line class="st0" x1="179.8" y1="98.6" x2="201.9" y2="98.7"/>
	<line class="st0" x1="180.2" y1="100.3" x2="202.2" y2="100.4"/>
	<line class="st0" x1="180.5" y1="101.9" x2="202.4" y2="102"/>
	<line class="st0" x1="180.7" y1="103.6" x2="202.5" y2="103.6"/>
	<line class="st0" x1="181" y1="105.3" x2="202.7" y2="105.3"/>
	<line class="st0" x1="181.1" y1="106.9" x2="202.8" y2="107"/>
	<line class="st0" x1="181.3" y1="108.7" x2="202.9" y2="108.7"/>
	<line class="st0" x1="181.3" y1="110.5" x2="202.9" y2="110.5"/>
	<line class="st0" x1="181.4" y1="112.4" x2="202.9" y2="112.4"/>
	<line class="st0" x1="181.3" y1="114.4" x2="202.8" y2="114.4"/>
	<line class="st0" x1="181.3" y1="116.4" x2="202.7" y2="116.4"/>
	<line class="st0" x1="181.1" y1="118.4" x2="202.6" y2="118.4"/>
	<line class="st0" x1="181" y1="120.1" x2="202.5" y2="120.2"/>
	<line class="st0" x1="180.8" y1="121.9" x2="202.3" y2="121.9"/>
	<line class="st0" x1="180.6" y1="123.9" x2="202.1" y2="123.9"/>
	<line class="st0" x1="180.3" y1="125.7" x2="201.9" y2="125.8"/>
	<line class="st0" x1="179.9" y1="127.6" x2="201.6" y2="127.7"/>
	<line class="st0" x1="179.6" y1="129.7" x2="201.3" y2="129.7"/>
	<line class="st0" x1="179.1" y1="131.9" x2="200.8" y2="131.9"/>
	<line class="st0" x1="178.7" y1="133.9" x2="200.2" y2="133.9"/>
	<line class="st0" x1="178.1" y1="136.2" x2="199.6" y2="136.2"/>
	<line class="st0" x1="177.4" y1="138.2" x2="198.9" y2="138.3"/>
	<line class="st0" x1="176.7" y1="140.5" x2="198" y2="140.6"/>
	<line class="st0" x1="176" y1="142.8" x2="197.1" y2="142.9"/>
	<line class="st0" x1="175.2" y1="145" x2="196.1" y2="145.1"/>
	<line class="st0" x1="174.2" y1="147.4" x2="194.9" y2="147.4"/>
	<line class="st0" x1="173.2" y1="149.8" x2="193.6" y2="149.8"/>
	<line class="st0" x1="172" y1="152.3" x2="192.1" y2="152.4"/>
	<line class="st0" x1="170.9" y1="154.7" x2="190.6" y2="154.7"/>
	<line class="st0" x1="169.2" y1="157.5" x2="188.6" y2="157.5"/>
	<line class="st0" x1="168.2" y1="159" x2="187.4" y2="159"/>
	<line class="st0" x1="167.3" y1="160.1" x2="186.6" y2="160.1"/>
	<line class="st0" x1="166.6" y1="161" x2="185.7" y2="161.1"/>
	<line class="st0" x1="165.8" y1="161.9" x2="184.9" y2="161.9"/>
	<line class="st0" x1="165.1" y1="162.6" x2="184.2" y2="162.6"/>
	<line class="st0" x1="164.2" y1="163.2" x2="183.6" y2="163.2"/>
	<line class="st0" x1="163" y1="163.8" x2="183" y2="163.8"/>
	<line class="st0" x1="162.6" y1="164.4" x2="182.4" y2="164.4"/>
	<line class="st0" x1="163.1" y1="165" x2="181.7" y2="165"/>
	<line class="st0" x1="163.6" y1="165.6" x2="181" y2="165.6"/>
	<line class="st0" x1="164.2" y1="166.1" x2="180.3" y2="166.2"/>
	<line class="st0" x1="164.7" y1="166.6" x2="179.6" y2="166.6"/>
	<line class="st0" x1="165.3" y1="167.1" x2="178.9" y2="167.1"/>
	<line class="st0" x1="166" y1="167.6" x2="178.2" y2="167.6"/>
	<line class="st0" x1="166.7" y1="168.1" x2="177.4" y2="168.1"/>
	<line class="st0" x1="167.6" y1="168.5" x2="176.4" y2="168.5"/>
	<line class="st0" x1="168.8" y1="169" x2="175.3" y2="169"/>
	<line class="st0" x1="170.1" y1="169.4" x2="174.1" y2="169.4"/>
</g>
</svg>
