<?xml version="1.0" encoding="utf-8"?>
<!-- Generator: Adobe Illustrator 19.2.1, SVG Export Plug-In . SVG Version: 6.00 Build 0)  -->
<svg version="1.1" id="Слой_1" xmlns="http://www.w3.org/2000/svg" xmlns:xlink="http://www.w3.org/1999/xlink" x="0px" y="0px"
	 viewBox="0 0 500 200" style="enable-background:new 0 0 500 200;" xml:space="preserve">
<style type="text/css">
	.st0{fill:none;stroke:#FFFFFF;stroke-miterlimit:10;}
	.st1{fill:none;stroke:#FFFFFF;stroke-width:0.25;stroke-miterlimit:10;}
</style>
<g>
	<g>
		<g>
			<line class="st0" x1="152.7" y1="190.1" x2="152.7" y2="190.1"/>
			<g>
				<g>
					<g>
						<g>
							<path class="st1" d="M365.7,19.4c-80.4,1-170.1,66.1-219,165.8l-1.9,7.2c0,0,2.8,4.9,7.3-1.2c5.1-10.7,10.7-21.3,16.9-31.7
								C211.6,87.7,278.7,27,365.7,19.4"/>
						</g>
						<path class="st1" d="M365.8,19.3c-5-3.2-10.2-5.8-15.3-7.9c-5.2-2.2-10.4-3.8-15.6-5s-21.5-2.3-17.5-3.7
							c-4.8-0.6-15.7,3.1-14.1,0.6c-7.4,0-18.6,6.9-16.4,3.5c-4.1,0.6-13.9,5.5-12.6,3.1c-2.9,0.3-8.1,3.2-11,4.9
							c-2.8,1.6-10.8,6.2-9.6,3.8c0,0-17.8,13.5-17,9.7c-1.6,1-14.8,12.7-14.4,9.7c-1.7,1-10.6,13.8-11.4,11.4c-1.4,0.9-5.3,8.6-6,7
							c-2.3,2-7.7,14.3-8.2,11c-2.4,3.1-6.3,12.4-7.3,10c-2.7,1.4-4.4,11.6-5,7.8c-2.5,3.3-3.7,15.8-4.9,12.6
							c-1.9,2.6-3.9,17.1-5.1,14.4c-1.6,1.9-1.6,9.5-1.8,14c-0.1,4.5,0.3,8.8,1.2,12.8"/>
					</g>
					<path class="st1" d="M365.7,19.2c-0.1,1.3-1.3,5.7-3.2,9c-0.3,0.7,1.1-0.5,1.1-0.5c-1.6,4-4.5,8.6-6.9,11.3
						c-0.8,1,1.4-0.3,1.4-0.3c-2,3.8-5.9,8.2-8.1,9.9c-1.4,1.1,1.5-0.2,1.5-0.2c-2.5,4.1-6.2,7.7-8.3,9.2c-1.2,1,0.9,0.4,0.9,0.4
						c-2.9,3.8-7.1,6.8-8.7,8.2c-0.8,0.8,1.1,0.4,1.1,0.4c-2.6,3.2-6.6,6-9.2,7.4c-0.9,0.5,1.1,0.4,1.1,0.4c-1.1,1.2-4.7,3.3-7.8,5
						c-1.2,0.7,0.8,0.5,0.8,0.5c-3.1,2.4-7.9,4.7-10.1,6c-1.2,0.8,1.1,0.7,1.1,0.7c-3.8,2.9-9.1,5.4-11.5,6.7c-0.7,0.4,1,0.6,1,0.6
						c-4.5,3-10.5,5.9-13.3,7.2c-1.1,0.5,1,0.5,1,0.5c-4.6,3.2-10.9,6.3-14.3,7.4c-1.3,0.5,0.7,1,0.7,1c-3.7,2.1-9.8,4.1-14.2,5.9
						c-0.6,0.2,0.9,1,0.9,1c-3.4,1.5-11.6,4.6-16,6c-1.3,0.5,1,1.1,1,1.1c-3.1,1.3-13.7,4.5-18.3,6.3c-1.4,0.5,0.7,1.1,0.7,1.1
						c-2.5,0.7-15.3,3.2-20.1,4.7c-2.4,0.7,0.6,1.4,0.6,1.4c-5,1.3-19.6,3.5-30.3,4.1"/>
					<path class="st1" d="M168.4,160.4c0,0,5.9-0.8,12.6,2.7l-9.7-4.4c0,0,9.1,2.2,13.2,2.5c-2.4-0.8-3.7-1-6.4-1.7
						c-3.3-0.8-6.2-2.7-6.2-2.7s4.4,0.6,8.7,1.9s7.7,3,8.5,1.9c-1.5-0.2-3-0.2-7.6-2.4c-4.2-1.9-8.8-2.9-8.8-2.9s5.7,1.1,11.3,1.7
						c5.2,0.7,13.3,1.7,11.4-0.4c1.9,2.1-5.2,0-10.5-0.7c-5.4-0.7-11-2.3-11-2.3s5.5,0.8,11.8,0.7c6-0.2,14.5,0.1,13-2.4
						c1.5,2.5-6.7,1.7-12.6,1.2c-6.1-0.6-10.7-1.4-10.7-1.4s3.9-1.4,9.3-1c5,0.4,10.4-0.4,10.1-1.3c0.4,0.6-4.6,1.1-9.7,0.6
						c-5.1-0.5-9,0.1-9,0.1s4.3-0.9,9.8-1.2c6.4-0.4,11.2-1.6,11.3-2.5c0.2,0.4-5,1.7-10.7,1.5c-5.2-0.2-9.7,0-9.7,0
						s3.2-0.6,8.4-1.4c5.3-0.9,11.7-2.6,17-2.7c5.3-0.2,7.2-0.6,8.8-1.8c0.1,0.2-3.4,1-8.3,1.2c-5,0.2-11.3,1-16.3,1.5s-8,0.7-8,0.7
						l39.7-7.7l-39.3,6.1L168.4,160.4z"/>
					<path class="st1" d="M164.6,152.9c0,0-0.4-3.5-6.1-8.4l7.4,4.4l-4.8-3.8c0,0-3.6-3.1-5.8-9.1c3.1,4.6,4.4,5.9,6.1,7.5
						c3.3,3.2,6,3,6,3s-3-2.3-5.1-4.7s-5.3-7.1-5.9-9.1c1.4,1.9,3.3,5.4,6.7,8.3c2.3,1.9,5.4,4,5.4,4s-3.5-3-6.9-7.2
						c-3.6-4.6-9-16-3.8-14.3c-5.1-1.7,1.1,8.7,4,12c3.3,3.8,7.7,8.1,7.7,8.1s-2.7-2.9-4.3-6.1c-1.6-3.3-4.3-8.9-4.3-8.9
						s3.2,5.5,5.1,8.4c1.9,2.9,4.4,4.4,4.4,4.4s-3.7-4.8-6.6-10.7s-5.3-14.7-3.6-14.7c-1.7,0,1.5,8.8,4.8,14.4
						c3.2,5.7,6.8,10.1,6.8,10.1s-3.2-5.5-6.1-11.9c-2.8-6.5-2.6-15-2-15.1c-0.7,0.1,0.2,8.8,3.2,14.8c3,6,7,10.7,7,10.7
						L164.6,152.9z"/>
				</g>
				<path class="st1" d="M146.7,185.2c2.7-2.8,6.9-0.6,6,4.9"/>
			</g>
			<path class="st1" d="M174.1,112.5c-0.9,3.4-2.3,17.8,0.1,26"/>
			<line class="st1" x1="174.8" y1="137.6" x2="174.8" y2="137.6"/>
			<path class="st1" d="M174.5,112.4c-0.8,5-2.3,14.3-0.1,25.9"/>
			<path class="st1" d="M174.9,112.4c-1,5.6-2.1,14-0.1,25.4"/>
			<path class="st1" d="M175.3,111.6c-0.5,2.9-2.6,13.7-0.3,25.7"/>
			<path class="st1" d="M175.7,110.5c-0.5,3.8-2.7,15.9-0.3,26.3"/>
			<path class="st1" d="M176,109.7c-0.4,4.6-2.5,18.2-0.3,26.8"/>
			<path class="st1" d="M176.3,108.2c-0.3,3.9-2.3,21.4-0.3,27.6"/>
			<path class="st1" d="M176.6,107.2c0,3.7-1.9,18.1-0.2,28.1"/>
			<path class="st1" d="M180,102.3"/>
			<path class="st1" d="M181.5,127.3"/>
			<path class="st1" d="M177,105.4c0.3,1.8-1,20.6,0.2,28.8"/>
			<path class="st1" d="M179.2,102.7"/>
			<path class="st1" d="M179.5,131.5"/>
			<path class="st1" d="M177.6,103.1c0.9,1.8-0.6,21.6,0.6,29.7"/>
			<path class="st1" d="M177.9,101.9c0.9,1.8-0.3,22,0.9,30.2"/>
			<path class="st1" d="M178.2,100.8c0.9,1.9-0.1,22.4,1.1,30.5"/>
			<path class="st1" d="M178.4,100.1c1.2,1.8,0.1,22.6,1.3,30.7"/>
			<path class="st1" d="M178.7,99.4c1.3,2.9,0.3,22.6,1.6,30.8"/>
			<path class="st1" d="M178.9,98.7c1.5,2.3,0.6,22.6,1.8,30.7"/>
			<path class="st1" d="M179.1,98.1c1.9,2.4,0.8,22.6,2,30.7"/>
			<path class="st1" d="M179.9,98.3c1.1,5.2,0.7,22,1.6,30.1"/>
			<path class="st1" d="M180.2,97.9c1.1,5.1,1,21.8,1.7,30"/>
			<path class="st1" d="M180.5,97.2c1.1,5.1,1.2,21.9,1.9,30.1"/>
			<path class="st1" d="M180.8,96.2c1.4,5.6,1.3,22.2,2,30.4"/>
			<path class="st1" d="M181,95.5c1.5,5.4,1.5,22.5,2.2,30.7"/>
			<path class="st1" d="M181.3,94.3c1.6,5.4,1.8,23,2.4,31.2"/>
			<path class="st1" d="M181.6,93.2c1.5,5.5,2,23.4,2.7,31.7"/>
			<path class="st1" d="M181.8,92.1c1.5,5.5,2.3,23.8,3,32.1"/>
			<path class="st1" d="M182.1,91.1c1.6,5.4,2.6,24.1,3.3,32.3"/>
			<path class="st1" d="M182.4,90.1c1.7,6.2,2.7,24.4,3.6,32.5"/>
			<path class="st1" d="M182.7,88.9c1.8,6.2,2.9,24.9,3.7,33"/>
			<path class="st1" d="M183,87.9c1.8,6.2,3.2,25.2,4.1,33.3"/>
			<path class="st1" d="M183.5,86.9c1.7,6.2,3.4,25.4,4.3,33.5"/>
			<path class="st1" d="M183.9,86c1.8,6.2,3.6,25.5,4.5,33.7"/>
			<path class="st1" d="M184.5,85.8c1.8,6.2,3.6,24.9,4.5,33"/>
			<path class="st1" d="M185.2,85.6c1.7,6.1,3.6,24.3,4.5,32.4"/>
			<path class="st1" d="M185.4,84.9c1.8,5.5,4,24.2,4.9,32.3"/>
			<path class="st1" d="M185.9,84.1c2,6.1,4.2,24.3,5.1,32.4"/>
			<path class="st1" d="M186.2,83.1c2.1,6.1,4.5,24.5,5.3,32.6"/>
			<path class="st1" d="M186.6,82c2.3,6.3,4.7,24.9,5.5,33"/>
			<path class="st1" d="M187,81.1c2.1,6.4,5,25,5.8,33.1"/>
			<path class="st1" d="M187.3,80.3c2,6.2,5.4,25,6.2,33.1"/>
			<path class="st1" d="M187.7,79.6c2.3,6.9,5.5,25.1,6.4,33.2"/>
			<path class="st1" d="M188.1,78.9c2.3,6.9,5.7,25,6.6,33.2"/>
			<path class="st1" d="M188.6,78.1c2.4,6.9,5.8,25.1,6.6,33.3"/>
			<path class="st1" d="M189.1,77.6c2.4,6.9,5.8,25,6.7,33.2"/>
			<path class="st1" d="M190.1,77.8c2.3,6.9,5.4,24.1,6.3,32.2"/>
			<path class="st1" d="M190.7,77.3c2.3,6.9,5.3,24,6.2,32.2"/>
			<path class="st1" d="M191.2,76.6c2.4,6.9,5.3,24.1,6.2,32.2"/>
			<path class="st1" d="M191.8,75.7c2.3,6.9,5.4,24.2,6.3,32.4"/>
			<path class="st1" d="M192.3,74.9c2.3,6.9,5.5,24.4,6.4,32.5"/>
			<path class="st1" d="M192.9,73.9c2.3,6.9,5.6,24.6,6.5,32.8"/>
			<path class="st1" d="M193.5,72.7c2.3,6.9,5.6,25.1,6.5,33.3"/>
			<path class="st1" d="M194,71.9c2.4,6.9,5.7,25.3,6.6,33.5"/>
			<path class="st1" d="M194.6,70.9c2.3,6.9,5.7,25.8,6.5,33.9"/>
			<path class="st1" d="M195.1,70c2.3,6.9,5.7,26.1,6.5,34.2"/>
			<path class="st1" d="M195.5,69.2c2.4,6.9,5.8,26.3,6.6,34.4"/>
			<path class="st1" d="M196.1,68.3c2.3,6.9,5.8,26.5,6.7,34.6"/>
			<path class="st1" d="M196.6,67.6c2.3,6.9,5.9,26.6,6.7,34.8"/>
			<path class="st1" d="M197.3,68c2.4,6.9,5.8,25.5,6.7,33.6"/>
			<path class="st1" d="M198.1,67.2c2.3,6.9,5.6,25.7,6.4,33.9"/>
			<path class="st1" d="M198.6,66.5c2.3,6.9,5.7,25.7,6.6,33.9"/>
			<path class="st1" d="M199.3,65.5c2.3,6.9,5.7,26.1,6.5,34.2"/>
			<path class="st1" d="M199.9,64.5c2.3,6.9,5.6,26.5,6.5,34.6"/>
			<path class="st1" d="M200.5,63.5c2.3,6.9,5.6,26.9,6.5,35"/>
			<path class="st1" d="M200.9,62.5c2.3,6.9,5.6,27.2,6.5,35.4"/>
			<path class="st1" d="M201.5,61.4c2.3,6.9,5.6,27.7,6.5,35.9"/>
			<path class="st1" d="M202.3,60.2c2.4,6.9,5.4,28.4,6.3,36.5"/>
			<path class="st1" d="M202.9,59.2c2.3,6.9,5.3,28.9,6.2,37"/>
			<path class="st1" d="M203.6,58.3c2.3,6.9,5.2,29.3,6,37.5"/>
			<path class="st1" d="M204,57.5c2.4,6.9,5.2,29.6,6.1,37.7"/>
			<path class="st1" d="M204.7,56.7c2.3,6.9,5,29.9,5.9,38"/>
			<path class="st1" d="M205.5,56.5c2.3,6.9,4.7,29.6,5.5,37.8"/>
			<path class="st1" d="M206.3,55.8c2.3,6.9,4.4,29.9,5.3,38"/>
			<path class="st1" d="M206.9,54.9c2.3,6.9,4.2,30.2,5.1,38.4"/>
			<path class="st1" d="M207.6,53.9c2.3,6.9,4,30.8,4.9,39"/>
			<path class="st1" d="M208.2,52.9c2.3,6.9,3.9,31.3,4.8,39.5"/>
			<path class="st1" d="M208.8,52c2.4,6.9,3.9,31.6,4.7,39.8"/>
			<path class="st1" d="M209.5,51.1c2.3,6.9,3.8,32.1,4.6,40.2"/>
			<path class="st1" d="M210.1,50.2c2.3,6.9,3.6,32.4,4.5,40.6"/>
			<path class="st1" d="M210.7,49.5c2.4,6.9,3.5,32.6,4.4,40.7"/>
			<path class="st1" d="M211.8,49.5c1.8,7.7,3,32.1,3.8,40.3"/>
			<path class="st1" d="M212.4,49c1.8,7.6,2.8,32.1,3.7,40.3"/>
			<path class="st1" d="M213,48.5c1.8,7.5,2.7,32.1,3.6,40.3"/>
			<path class="st1" d="M213.6,47.9c1.8,7.9,2.6,32.3,3.5,40.5"/>
			<path class="st1" d="M214.2,47.3c1.7,7.6,2.6,32.3,3.5,40.5"/>
			<path class="st1" d="M214.9,46.5c1.7,6.6,2.5,33.3,3.4,40.7"/>
			<path class="st1" d="M215.9,45.5c1.6,6.6,2.1,33.9,3,41.2"/>
			<path class="st1" d="M216.5,44.5c1.7,6.6,1.9,34.3,2.8,41.7"/>
			<path class="st1" d="M217.5,43.5c1.7,6.6,1.6,34.7,2.5,42.1"/>
			<path class="st1" d="M218.5,42.2c1.7,6.5,1.1,35.6,2,42.9"/>
			<path class="st1" d="M219.6,40.8c1.7,6.5,0.6,36.4,1.5,43.7"/>
			<path class="st1" d="M220.5,39.8c1.6,6.6,0.5,36.7,1.4,44.1"/>
			<path class="st1" d="M221.7,38.5c1.7,6.5,0.2,37.1,1.1,44.5"/>
			<path class="st1" d="M222.7,38.5c1.7,6.6,0,36.4,0.9,43.8"/>
			<path class="st1" d="M223.7,38.3c1.7,6.6-0.2,36,0.7,43.4"/>
			<path class="st1" d="M224.6,37.7c1.7,6.5-0.2,35.9,0.7,43.2"/>
			<path class="st1" d="M225.5,37.2c1.7,6.5-0.4,35.6,0.5,43"/>
			<path class="st1" d="M226.3,36.5C228,43,226,72,226.9,79.4"/>
			<path class="st1" d="M227.3,35.8c1.7,6.5-0.5,35.6,0.4,42.9"/>
			<path class="st1" d="M228.3,34.9c1.7,6.5-0.8,35.8,0.1,43.2"/>
			<path class="st1" d="M229.4,34.2c1.7,6.5-1,35.8-0.1,43.2"/>
			<path class="st1" d="M230.5,33.3c1.7,6.5-1.1,35.8-0.2,43.1"/>
			<path class="st1" d="M231.6,32.4c1.7,6.5-1.2,35.8-0.3,43.1"/>
			<path class="st1" d="M232.7,31.4c1.7,6.5-1.3,35.9-0.4,43.3"/>
			<path class="st1" d="M234.2,30.3c1.7,6.5-1.8,36.3-0.9,43.7"/>
			<path class="st1" d="M235,29.5c1.7,6.5-1.7,36.3-0.8,43.6"/>
			<path class="st1" d="M237.6,28.9c1.7,6.5-2.5,35.3-1.6,42.7"/>
			<path class="st1" d="M238.8,28.5c1.7,6.5-2.7,35.1-1.8,42.4"/>
			<path class="st1" d="M240.3,27.7c1.7,6.5-3.2,35.1-2.3,42.4"/>
			<path class="st1" d="M241.6,26.9c1.7,6.5-3.4,35-2.5,42.4"/>
			<path class="st1" d="M242.9,26.2c1.2,6.6-3.8,35-2.9,42.4"/>
			<path class="st1" d="M245.5,24.4c1.7,6.5-4.3,35.5-3.7,42.8"/>
			<path class="st1" d="M247,23.4c1.7,6.5-5.1,35.6-4.2,43"/>
			<path class="st1" d="M249.7,21.6c1.7,6.5-6.1,36.2-5.2,43.6"/>
			<path class="st1" d="M251,20.6c1.7,6.5-6.3,36.8-5.8,44"/>
			<path class="st1" d="M253.6,19.1c1.7,6.5-7.7,36.9-6.8,44.3"/>
			<path class="st1" d="M255.5,18.9c1.7,6.5-8.8,36.7-7.9,44.1"/>
			<path class="st1" d="M257.4,18c1.7,6.5-9.9,37-9,44.3"/>
			<path class="st1" d="M259.3,17c1.2,6.5-10.4,37.4-10,44.6"/>
			<path class="st1" d="M261.1,16c1.2,6.6-10.9,37.7-10.8,44.9"/>
			<path class="st1" d="M263,15c1.1,6.5-11.8,37.9-11.7,45.2"/>
			<path class="st1" d="M264.4,14.1c1.3,6.1-12.1,38.1-12.2,45.4"/>
			<path class="st1" d="M266,13.3c1.4,5.6-12.5,38.6-12.8,45.6"/>
			<path class="st1" d="M267.6,12.4c1.5,6.3-12.7,38.3-13.4,45.8"/>
			<path class="st1" d="M269.4,11.6c1.7,6.5-13.9,38.2-13.7,45.6"/>
			<path class="st1" d="M271.1,10.8c1.7,6.5-14.2,39.4-14.3,45.7"/>
			<path class="st1" d="M272.8,10.3c1.7,6.5-14.7,39.5-15,45.5"/>
			<path class="st1" d="M274.3,10.6c1,7.5-14.7,38.1-15.3,44.4"/>
			<path class="st1" d="M277.5,9.9c1.7,6.5-15.6,37.5-16,43.5"/>
			<path class="st1" d="M279,9.4c1.6,6-15.7,37.4-16.1,43.2"/>
			<path class="st1" d="M280.7,8.7C282,15,264.4,46.4,263.8,52"/>
			<path class="st1" d="M282.3,8.2c1.1,6-16.7,37.6-17.6,43.1"/>
			<path class="st1" d="M283.3,7.8c1.2,8.1-16.7,37.3-17.4,42.8"/>
			<path class="st1" d="M284.8,7.3c1.1,7.6-16.7,37.1-17.6,42.5"/>
			<path class="st1" d="M286,7c2.3,7-17,36.8-17.7,42.2"/>
			<path class="st1" d="M287.5,7.6c1.7,6.3-17.1,35.4-17.9,40.8"/>
			<path class="st1" d="M289.3,7.1c1.5,6-17.5,34.9-18.4,40.5"/>
			<path class="st1" d="M290.9,6.5c1.6,6.1-17.3,34.5-18.7,40.4"/>
			<path class="st1" d="M292.4,6c1.6,6.1-17.4,34.6-19,40.3"/>
			<path class="st1" d="M293.8,5.5c1.6,6-17.2,34.5-19.1,40.1"/>
			<path class="st1" d="M295.6,4.9c1.5,6-17.8,34.6-19.5,40"/>
			<path class="st1" d="M297.7,4.2c1.6,6.1-17.9,34.4-20.1,39.7"/>
			<path class="st1" d="M299.5,3.8c1.5,6-18.1,34.3-20.5,39.4"/>
			<path class="st1" d="M301.3,3.4c1.6,6.1-18,33.7-20.7,39"/>
			<path class="st1" d="M302.9,3.3c1.1,6.3-17.6,33-20.9,38.4"/>
			<path class="st1" d="M304.4,4.2c0.8,6-17.3,31.3-20.8,36.7"/>
			<path class="st1" d="M306.1,4.1c0.3,6.7-17.1,30.4-20.9,36.1"/>
			<path class="st1" d="M308,3.7c0.1,6.4-17.7,30-21.1,35.6"/>
			<path class="st1" d="M309.8,3.3c0,6.1-17.8,30-21.4,35.1"/>
			<path class="st1" d="M312,2.9c0.1,6.2-18.1,29.5-21.7,34.7"/>
			<path class="st1" d="M313.9,2.8c0,6.1-18,28.7-21.6,33.9"/>
			<path class="st1" d="M315.9,2.6c0.1,6.1-18,27.9-21.6,33.1"/>
			<path class="st1" d="M317.4,3.6c0.1,6.2-17.5,26.1-21.1,31.3"/>
			<path class="st1" d="M319.3,4c0.1,6.1-17,24.7-20.6,29.8"/>
			<path class="st1" d="M321.7,4.5c0.1,6.2-17.4,23.4-20.9,28.6"/>
			<path class="st1" d="M324.1,4.8c0,6.2-17.6,22.2-21.1,27.4"/>
			<path class="st1" d="M326.3,5.1c0.1,6.1-17.7,21.1-21.2,26.3"/>
			<path class="st1" d="M328.6,5.5c0,6.1-17.6,19.9-21.1,25.1"/>
			<path class="st1" d="M330.7,5.7c0,6.1-17.8,18.9-21.3,24.1"/>
			<path class="st1" d="M332.9,6c0,6.1-18,17.9-21.6,23.1"/>
			<path class="st1" d="M335,6.4c0,6.1-17.8,16.7-21.4,21.9"/>
			<path class="st1" d="M336.8,6.9c0.1,6.1-16.6,15.7-21.2,20.9"/>
			<path class="st1" d="M339,7.4c0,6.1-16.4,15.4-21,19.6"/>
			<path class="st1" d="M340.9,8c-0.4,5.5-15.3,13.7-20.7,18.4"/>
			<path class="st1" d="M342.9,8.5c-1,5.3-15.2,12.7-20.2,17.1"/>
			<path class="st1" d="M344.4,9.1c-0.9,5.6-15,12.1-19.4,16"/>
			<path class="st1" d="M346.1,9.8c-1.3,5.5-14.7,10.9-19.1,14.8"/>
			<path class="st1" d="M347.8,10.4c-2.1,5.3-14.1,9.8-18.5,13.7"/>
			<path class="st1" d="M349.4,10.9c-1.9,5.2-13.7,8.7-18.2,12.6"/>
			<path class="st1" d="M350.9,11.5c-1.8,5.4-13.4,7.8-17.8,11.6"/>
			<path class="st1" d="M352.3,12.2c-1.5,5-12.5,7-17.2,10.5"/>
			<path class="st1" d="M353.9,13c-2.3,4.6-12.4,7.1-16.9,9.3"/>
			<path class="st1" d="M355.7,13.8c-3,4.8-10.6,6.1-15.3,7.9"/>
			<path class="st1" d="M357.6,14.7c-3.7,4.3-8.5,4.5-13.1,6.4"/>
			<path class="st1" d="M359.4,15.7c-4.5,3.4-6.7,3.4-11.6,4.9"/>
			<path class="st1" d="M360.7,16.4c-4,2.7-6.1,2.9-9.3,3.8"/>
			<path class="st1" d="M362,17.1c-2.4,1.7-5.7,2.5-7.1,2.8"/>
			<path class="st1" d="M363.6,18.1c-1.5,0.9-3.6,1.2-4.6,1.5"/>
			<path class="st1" d="M364.5,18.7c-0.7,0.4-2,0.7-2.5,0.8"/>
			<path class="st1" d="M275.9,10.4c1.5,6.6-15.1,37.4-15.5,43.7"/>
			<path class="st1" d="M252.3,19.7c1.7,6.5-7.3,37.1-6.4,44.4"/>
			<path class="st1" d="M248.3,22.5c1.7,6.5-5.6,35.9-4.7,43.3"/>
			<path class="st1" d="M244.4,25.2c1.7,6.5-4.2,35.3-3.5,42.7"/>
			<path class="st1" d="M236.3,28.5c1.7,6.5-2,36.6-1.1,43.9"/>
			<path class="st1" d="M177.3,104.4c0.7,1.7-0.9,21,0.4,29.2"/>
			<path class="st1" d="M181.1,100.1"/>
			<path class="st1" d="M181.3,128.9"/>
			<path class="st1" d="M176.7,106.6c0.5,2.1-1.5,17.1,0.1,28.3"/>
			<path class="st1" d="M181.7,99.8"/>
			<path class="st1" d="M183.3,124.8"/>
			<path class="st1" d="M185.8,122.3"/>
			<path class="st1" d="M188.2,119.9"/>
		</g>
		<path class="st1" d="M219.9,133.8c-5.4-1.6-19.4-13.4-22.7-15.2"/>
		<path class="st1" d="M218.7,134c-5.3-1.5-18.7-13.1-22.1-14.9"/>
		<path class="st1" d="M217.4,134.3c-5.4-1.6-17.9-12.7-21.2-14.5"/>
		<path class="st1" d="M216.1,134.5c-5.3-1.5-17-12.3-20.4-14.1"/>
		<path class="st1" d="M215,134.9c-5.3-1.5-16.4-12.1-19.7-13.9"/>
		<path class="st1" d="M213.8,135.1c-5.3-1.5-15.7-11.7-19-13.5"/>
		<path class="st1" d="M212.8,135.4c-5.3-1.5-15.2-11.4-18.5-13.2"/>
		<path class="st1" d="M211.6,135.7c-5.4-1.5-14.3-11.2-17.6-13"/>
		<path class="st1" d="M210.4,136.1c-5.4-1.6-13.5-11.1-16.8-12.9"/>
		<path class="st1" d="M209.4,136.4c-5.3-1.5-12.9-10.8-16.3-12.6"/>
		<path class="st1" d="M209.8,137.4c-5.9-1-13.9-11.1-17.3-13"/>
		<path class="st1" d="M209.8,137.8c-5.9-0.4-14.3-10.8-17.7-12.6"/>
		<path class="st1" d="M208.6,138.1c-5.8-0.9-13.6-10.5-17-12.4"/>
		<path class="st1" d="M207.4,138.2c-5.5-1-12.7-10.3-16.1-12.1"/>
		<path class="st1" d="M206.2,138.5c-5.3-1.3-12-10-15.4-11.8"/>
		<path class="st1" d="M205.3,138.6c-4.8-0.8-11.6-9.4-14.9-11.2"/>
		<path class="st1" d="M204.1,138.8c-5.2-1-10.8-9.1-14.1-10.9"/>
		<path class="st1" d="M202.9,139c-5.6-1.2-10-8.6-13.4-10.5"/>
		<path class="st1" d="M201.6,139.3c-4.2-0.3-9.2-8.3-12.6-10.1"/>
		<path class="st1" d="M200.2,139.4c-4.5-1.4-8.2-7.9-11.6-9.7"/>
		<path class="st1" d="M199.1,139.6c-3.5-1-7.5-7.5-10.9-9.3"/>
		<path class="st1" d="M198.1,139.7c-3.6-1.3-7-7.1-10.3-8.9"/>
		<path class="st1" d="M197.4,139.9c-2.5-0.4-6.7-6.7-10-8.5"/>
		<path class="st1" d="M196.5,140c-2.7-1.2-6.2-6.1-9.6-7.9"/>
		<path class="st1" d="M195.9,140.1c-2.3-0.8-7.1-7.1-9.5-7.2"/>
		<path class="st1" d="M195.4,140.2c-2.3-0.8-7.1-6.6-9.4-6.8"/>
		<path class="st1" d="M194.8,140.2c-2.3-0.8-6.9-6.4-9.3-6"/>
		<path class="st1" d="M194.1,140.3c-2.3-0.8-6.8-5.8-9.2-5.4"/>
		<path class="st1" d="M193.6,140.4c-2.3-0.8-6.7-5.2-9.2-4.8"/>
		<path class="st1" d="M192.8,140.4c-2.3-0.8-6.4-4.7-8.8-4.3"/>
		<path class="st1" d="M192.1,140.5c-2.3-0.8-6.1-4.2-8.5-3.8"/>
		<path class="st1" d="M191.4,140.6c-2.3-0.8-5.8-3.9-8.2-3.2"/>
		<path class="st1" d="M190.8,140.7c-2.3-0.8-5.6-3.4-8-2.7"/>
		<path class="st1" d="M190,140.8c-2.3-0.8-5.2-2.9-7.6-2.3"/>
		<path class="st1" d="M189,140.9c-2.4-1.3-4.5-2.5-7-1.8"/>
		<path class="st1" d="M188.3,141c-2.3-1.2-4.2-1.9-6.6-1.3"/>
		<path class="st1" d="M187.5,141.1c-2.4-1.3-3.9-1.3-6.3-0.8"/>
		<path class="st1" d="M186.7,141.1c-2.5-0.9-3.4-0.8-5.8-0.3"/>
		<path class="st1" d="M186,141.3c-2.2-0.3-3.2-0.4-5.4,0"/>
		<path class="st1" d="M221,133.4c-3.6,0.1-20-13.7-23.4-15.4"/>
		<path class="st1" d="M222,133.2c-5.6-0.4-20.7-14.7-24.2-15.6"/>
		<path class="st1" d="M223.1,133.1c-6.6-0.8-21.1-15.5-24.9-15.9"/>
		<path class="st1" d="M224.1,132.9c-7.6-1.2-21.3-15.9-25.5-16.1"/>
		<path class="st1" d="M225,132.7c-10.4-2.9-21.6-16.4-26-16.4"/>
		<path class="st1" d="M225.9,132.4c-10.5-3.5-22.2-16.7-26.5-16.6"/>
		<path class="st1" d="M227,132.1c-8.9-2.5-23-17-27.2-16.9"/>
		<path class="st1" d="M228,131.9c-9-2.9-23.6-17.2-27.8-17.2"/>
		<path class="st1" d="M229.2,131.7c-8.7-2-24.3-17.4-28.6-17.4"/>
		<path class="st1" d="M229,131c-8.8-2.1-23.8-17.2-28.1-17.2"/>
		<path class="st1" d="M229.1,130.4c-8.7-2.1-23.5-17.1-27.8-17.1"/>
		<path class="st1" d="M230.2,130c-9.6-1.5-24.2-17.2-28.5-17.2"/>
		<path class="st1" d="M231,129.8c-10-1.4-24.5-17.5-28.8-17.5"/>
		<path class="st1" d="M231.8,129.5c-9.2-0.8-24.9-17.8-29.2-17.8"/>
		<path class="st1" d="M232.5,129.3c-10.4-1.6-24.8-18.2-29.4-17.9"/>
		<path class="st1" d="M233.3,129c-12.3-2.7-24.9-18.2-29.9-18.2"/>
		<path class="st1" d="M234,128.8c-12.7-3-25.8-18.6-30.1-18.6"/>
		<path class="st1" d="M235,128.3c-12.8-3-25.3-17.8-30.6-18.6"/>
		<path class="st1" d="M235.9,128.1c-12.5-2.5-26.8-18.3-31.2-18.7"/>
		<path class="st1" d="M237.1,127.7c-13.2-2.4-27.5-18.5-31.9-18.9"/>
		<path class="st1" d="M238.1,127.4c-13.4-2.3-28-18.7-32.4-19.1"/>
		<path class="st1" d="M239.3,127c-13-2-28.8-18.7-33.1-19.4"/>
		<path class="st1" d="M240.4,126.7c-13-2.1-29.4-18.9-33.8-19.6"/>
		<path class="st1" d="M241.5,126.3c-13-2-30-19.1-34.3-19.8"/>
		<path class="st1" d="M242.9,125.9c-13-2.1-30.9-19.2-35.3-19.9"/>
		<path class="st1" d="M244.3,125.4c-13.1-2.1-31.8-19.3-36.2-20"/>
		<path class="st1" d="M245.4,124.9c-13.1-2.1-32.4-19.5-36.7-20.1"/>
		<path class="st1" d="M247.1,124.3c-13.2-1.7-33.6-19.4-37.9-20.1"/>
		<path class="st1" d="M246.3,123.3c-13-2-32.2-19-36.6-19.6"/>
		<path class="st1" d="M247.4,122.7c-13-2-32.7-19.1-37-19.8"/>
		<path class="st1" d="M248.8,122.3c-13.1-2.1-33.6-19.3-37.9-19.9"/>
		<path class="st1" d="M250.1,121.7c-13-2-34.4-19.3-38.8-20"/>
		<path class="st1" d="M251.3,121.3c-13.1-2.1-35-19.6-39.4-20.3"/>
		<path class="st1" d="M252.7,120.8c-13-2-35.7-19.8-40-20.5"/>
		<path class="st1" d="M253.8,120.4c-13-2-36.2-20.2-40.5-20.8"/>
		<path class="st1" d="M255.1,120c-13.1-2.1-36.8-20.4-41.2-21"/>
		<path class="st1" d="M256.3,119.6c-13.1-2.1-37.3-20.6-41.7-21.2"/>
		<path class="st1" d="M257.3,119.2c-13.1-2.1-37.8-20.9-42.1-21.6"/>
		<path class="st1" d="M258.2,118.7c-13-2-38.2-21.1-42.5-21.7"/>
		<path class="st1" d="M259.1,118.5c-13.1-2.1-38.4-21.5-42.7-22.1"/>
		<path class="st1" d="M260.1,118.1C247,116,221.4,96.4,217,95.7"/>
		<path class="st1" d="M261.2,117.6c-13.2-1.8-39.2-22-43.5-22.6"/>
		<path class="st1" d="M262.1,117.2c-13.1-2.1-39.4-22.3-43.8-23"/>
		<path class="st1" d="M261.8,116.4c-13-2-38.4-22.2-42.8-22.9"/>
		<path class="st1" d="M262.3,115.8c-13.2-2-38.1-22.4-42.4-23.1"/>
		<path class="st1" d="M263.2,115.4c-13-2.1-38.3-22.8-42.6-23.4"/>
		<path class="st1" d="M264.3,114.9c-13.1-2.1-38.7-23-43.1-23.7"/>
		<path class="st1" d="M265.5,114.6c-13-2.1-39.1-23.3-43.5-24"/>
		<path class="st1" d="M267,114c-13.1-2.1-39.8-23.5-44.2-24.2"/>
		<path class="st1" d="M268.3,113.4c-13-2-40.5-23.7-44.8-24.4"/>
		<path class="st1" d="M269.6,113c-13-2.1-40.9-24-45.3-24.7"/>
		<path class="st1" d="M270.8,112.5c-13.1-2.1-41.5-24.2-45.8-24.9"/>
		<path class="st1" d="M271.8,112.1c-13.1-2.1-41.6-24.6-46-25.2"/>
		<path class="st1" d="M273.1,111.6c-13.1-2.1-42.3-24.7-46.6-25.4"/>
		<path class="st1" d="M274.3,111c-13.1-2.1-42.7-24.9-47-25.5"/>
		<path class="st1" d="M275.2,110.5c-13-2.1-43-24.9-47.3-25.6"/>
		<path class="st1" d="M274.9,109.5c-13.1-2.1-42.1-24.6-46.4-25.3"/>
		<path class="st1" d="M275.6,108.9c-13.1-2.1-42-24.8-46.3-25.4"/>
		<path class="st1" d="M276.9,108.5c-13.1-2.1-42.7-24.7-46.9-25.6"/>
		<path class="st1" d="M278.2,107.9c-13-2-43.2-25-47.5-25.7"/>
		<path class="st1" d="M279.4,107.3c-13-2-43.6-25.1-48-25.8"/>
		<path class="st1" d="M280.4,106.9c-13-2.1-44-25.3-48.4-25.9"/>
		<path class="st1" d="M281.5,106.3c-13-2-44.4-25.2-48.8-25.9"/>
		<path class="st1" d="M282.5,105.9c-13.1-2.1-44.9-25.3-49.2-26"/>
		<path class="st1" d="M283.3,105.4c-13-2.1-45.1-25.3-49.5-26"/>
		<path class="st1" d="M284,105c-13-2.1-45.3-25.4-49.7-26.1"/>
		<path class="st1" d="M285.1,104.5c-13.1-2.1-46-25.2-50.3-25.9"/>
		<path class="st1" d="M285.9,104.1c-13-2.1-46.2-25.3-50.5-26"/>
		<path class="st1" d="M286.7,103.6c-13.1-2.1-46.3-25.4-50.7-26.1"/>
		<path class="st1" d="M287.2,103.1c-13.1-2.1-46.3-25.6-50.7-26.2"/>
		<path class="st1" d="M288,102.7c-13-2-46.5-25.5-50.9-26.2"/>
		<path class="st1" d="M288.8,102.1c-13-2-46.8-25.5-51.2-26.1"/>
		<path class="st1" d="M288.3,101.4c-13-2-45.7-25.3-50-26"/>
		<path class="st1" d="M289.1,100.9c-13.1-2.1-45.9-25.3-50.2-26"/>
		<path class="st1" d="M290.1,100.5c-13-2-46.3-25.3-50.6-26"/>
		<path class="st1" d="M290.9,100.1c-13-2-46.5-25.4-50.8-26.1"/>
		<path class="st1" d="M291.6,99.8c-13.1-2.1-46.7-25.6-51-26.3"/>
		<path class="st1" d="M292.4,99.3c-13.1-2.1-46.8-25.8-51.2-26.4"/>
		<path class="st1" d="M293.3,98.9c-13-2.1-47.1-25.9-51.4-26.6"/>
		<path class="st1" d="M294.1,98.6c-13.1-2.1-47.2-26-51.5-26.7"/>
		<path class="st1" d="M295,98.1C281.9,96,247.7,72,243.3,71.3"/>
		<path class="st1" d="M296,97.5c-13-2.1-47.7-26.1-52-26.8"/>
		<path class="st1" d="M296.9,97c-13.1-2.1-48-26.2-52.3-26.8"/>
		<path class="st1" d="M297.9,96.5c-13.1-2.1-48.2-26.1-52.6-26.8"/>
		<path class="st1" d="M298.7,96c-13.1-2.1-48.4-26.2-52.7-26.9"/>
		<path class="st1" d="M299.5,95.5c-13.1-2.1-48.5-26.3-52.8-27"/>
		<path class="st1" d="M300.1,95.1C287,93,251.7,68.6,247.3,68"/>
		<path class="st1" d="M300.7,94.7c-13-2.1-48.4-26.5-52.8-27.2"/>
		<path class="st1" d="M301.7,94.2c-13.1-2.1-48.6-26.5-52.9-27.2"/>
		<path class="st1" d="M301.1,93.2c-13-2-47.4-26.1-51.7-26.8"/>
		<path class="st1" d="M301.8,92.8c-13.1-2.1-47.4-26.3-51.8-27"/>
		<path class="st1" d="M302.5,92.4c-13-2-47.4-26.4-51.8-27"/>
		<path class="st1" d="M303.2,92.2c-13-2-47.5-26.5-51.9-27.2"/>
		<path class="st1" d="M303.8,91.8c-13-2-47.6-26.6-51.9-27.3"/>
		<path class="st1" d="M304.6,91.4c-13.1-2.1-47.7-26.7-52-27.4"/>
		<path class="st1" d="M305.4,90.9c-13.1-2.1-47.9-26.7-52.2-27.4"/>
		<path class="st1" d="M306.2,90.5c-13-2-48.2-26.6-52.6-27.3"/>
		<path class="st1" d="M306.8,90.1c-13.1-2.1-48.3-26.7-52.7-27.3"/>
		<path class="st1" d="M307.7,89.6c-13.1-2.1-48.7-26.6-53-27.2"/>
		<path class="st1" d="M308.4,89.2c-13-2.1-48.8-26.6-53.1-27.3"/>
		<path class="st1" d="M309,88.9c-13.1-2.1-48.8-26.7-53.1-27.4"/>
		<path class="st1" d="M309.6,88.5c-13-2.1-48.7-26.7-53-27.4"/>
		<path class="st1" d="M310.4,88c-13.1-2.1-49-26.7-53.3-27.3"/>
		<path class="st1" d="M311,87.7c-13.1-2.1-49.1-26.6-53.5-27.3"/>
		<path class="st1" d="M311.6,87.1c-13-2-49.2-26.5-53.6-27.1"/>
		<path class="st1" d="M312.1,86.8c-13.2-1.9-49.1-26.5-53.5-27.2"/>
		<path class="st1" d="M311.1,86c-13.1-2.1-47.5-26.1-51.8-26.8"/>
		<path class="st1" d="M311.9,85.5c-13.1-2.1-47.5-26.2-51.9-26.9"/>
		<path class="st1" d="M312.5,85.2c-13.1-2.1-47.6-26.3-52-26.9"/>
		<path class="st1" d="M313.2,84.7c-13-2-47.6-26.3-52-26.9"/>
		<path class="st1" d="M313.9,84.3c-13-2-47.7-26.3-52-27"/>
		<path class="st1" d="M314.7,84c-13-2-47.8-26.3-52.2-27"/>
		<path class="st1" d="M315.5,83.5c-13-2.1-47.9-26.4-52.2-27.1"/>
		<path class="st1" d="M316.4,83c-13-2-48.1-26.4-52.5-27.1"/>
		<path class="st1" d="M317.3,82.5c-13.1-2.1-48.4-26.3-52.8-27"/>
		<path class="st1" d="M318.1,82.1c-13-2-48.3-26.4-52.7-27"/>
		<path class="st1" d="M318.8,81.7c-13.1-2.1-48.3-26.5-52.7-27.1"/>
		<path class="st1" d="M319.7,81.1c-13.1-2.1-48.6-26.3-52.9-27"/>
		<path class="st1" d="M320.4,80.6c-13.1-2.1-48.4-26.4-52.8-27.1"/>
		<path class="st1" d="M320.9,80.3c-13.1-2.1-48.1-26.6-52.5-27.3"/>
		<path class="st1" d="M320.3,79.7c-12.9-2.3-46.9-26.4-51.3-27"/>
		<path class="st1" d="M321,79.1c-13-2-46.7-26.3-51.1-27"/>
		<path class="st1" d="M322,78.5c-13-2-46.6-26.5-50.9-27.1"/>
		<path class="st1" d="M322.9,78c-13-2-46.6-26.5-50.9-27.1"/>
		<path class="st1" d="M323.6,77.6c-13-2.1-46.4-26.6-50.8-27.3"/>
		<path class="st1" d="M324.4,77.2c-13.1-2.1-46.4-26.6-50.8-27.3"/>
		<path class="st1" d="M325,76.9c-13.1-2.1-46.2-26.7-50.6-27.4"/>
		<path class="st1" d="M325.6,76.4c-13.1-2.1-46.1-26.9-50.4-27.5"/>
		<path class="st1" d="M326.1,76.1c-13-2.1-45.7-27-50-27.6"/>
		<path class="st1" d="M326.6,75.8c-13-2-45.4-27.1-49.7-27.8"/>
		<path class="st1" d="M327.2,75.4c-13.1-2.1-45.1-27.3-49.4-28"/>
		<path class="st1" d="M327.7,75c-13.1-2.1-44.6-27.5-49-28.1"/>
		<path class="st1" d="M327.2,74.1C314.1,72,284,47,279.6,46.3"/>
		<path class="st1" d="M328,73.7c-13-2.1-43.2-27.1-47.5-27.8"/>
		<path class="st1" d="M328.8,73.2c-13.1-2.1-43.2-27.1-47.5-27.8"/>
		<path class="st1" d="M329.5,72.7c-13-2.1-43.1-27.1-47.4-27.8"/>
		<path class="st1" d="M330.4,72.1c-13.1-2.1-43.1-27-47.4-27.6"/>
		<path class="st1" d="M331.2,71.6c-13-2.1-42.8-27-47.1-27.6"/>
		<path class="st1" d="M331.9,71.1c-13-2.1-42.5-27-46.8-27.7"/>
		<path class="st1" d="M332.6,70.5c-13-2.1-42.2-26.9-46.6-27.5"/>
		<path class="st1" d="M333.3,69.9c-13-2-41.9-26.8-46.3-27.5"/>
		<path class="st1" d="M334.1,69.2c-13-2-41.7-26.7-46.1-27.3"/>
		<path class="st1" d="M334.7,68.6c-13-2.1-41.3-26.6-45.7-27.3"/>
		<path class="st1" d="M335.3,68.1c-13-2.1-40.8-26.6-45.2-27.2"/>
		<path class="st1" d="M335.9,67.5c-13.1-2.1-40.7-26.4-45-27.1"/>
		<path class="st1" d="M335.4,66.5c-13.1-2.1-39.2-25.9-43.5-26.5"/>
		<path class="st1" d="M336,66c-13-2-38.9-25.7-43.3-26.4"/>
		<path class="st1" d="M336.8,65.2c-13.1-2.1-38.8-25.5-43.2-26.1"/>
		<path class="st1" d="M337.6,64.6c-13-2-38.8-25.2-43.1-25.9"/>
		<path class="st1" d="M338.2,64.1c-13.1-2.1-38.6-25.1-43-25.8"/>
		<path class="st1" d="M338.9,63.6c-13.1-2.1-38.3-25-42.6-25.7"/>
		<path class="st1" d="M339.5,63c-13.1-2.1-37.8-25-42.1-25.7"/>
		<path class="st1" d="M340.1,62.5C327,60.4,302.6,37.6,298.3,37"/>
		<path class="st1" d="M340.6,62c-13-2.1-37.1-24.8-41.4-25.5"/>
		<path class="st1" d="M341.2,61.4c-13-2.1-36.6-24.7-41-25.3"/>
		<path class="st1" d="M341.9,60.8c-13.1-2.1-36.1-24.5-40.5-25.2"/>
		<path class="st1" d="M342.4,60.1c-13-2-35.8-24.3-40.1-24.9"/>
		<path class="st1" d="M343,59.6c-13.1-2.1-35.2-24.2-39.6-24.9"/>
		<path class="st1" d="M343.5,58.9c-13-2.1-34.8-23.9-39.1-24.6"/>
		<path class="st1" d="M343,58.2c-13-2-33.2-23.6-37.5-24.2"/>
		<path class="st1" d="M343.5,57.6c-13.1-2.1-32.8-23.4-37.1-24.1"/>
		<path class="st1" d="M344.2,57.1c-13.1-2.1-32.5-23.3-36.8-24"/>
		<path class="st1" d="M344.8,56.6c-13-2-32.1-23.1-36.5-23.8"/>
		<path class="st1" d="M345.3,56.1c-13.1-2.1-31.8-23-36.1-23.7"/>
		<path class="st1" d="M345.9,55.6c-13.1-2.1-31.4-22.8-35.7-23.5"/>
		<path class="st1" d="M346.5,54.9c-13.1-2.1-31-22.6-35.3-23.2"/>
		<path class="st1" d="M347,54.4c-13-2-30.6-22.3-35-23"/>
		<path class="st1" d="M347.7,53.7c-13.1-2.1-30.2-22-34.6-22.7"/>
		<path class="st1" d="M348.3,53.1c-13.1-2.1-29.7-21.8-34.1-22.5"/>
		<path class="st1" d="M349,52.2c-13.1-2.1-29.5-21.3-33.8-22"/>
		<path class="st1" d="M349.7,51.4c-13-2.1-29.1-20.8-33.4-21.5"/>
		<path class="st1" d="M350.3,50.4c-13-2-28.5-20.3-32.9-20.9"/>
		<path class="st1" d="M351.1,49.5c-13.1-2.1-28.2-19.7-32.5-20.4"/>
		<path class="st1" d="M350.8,48.1c-13-2-26.9-18.6-31.2-19.3"/>
		<path class="st1" d="M351.8,47.1c-13-2.1-26.9-18-31.2-18.6"/>
		<path class="st1" d="M352.8,46.2c-13.1-2.1-26.8-17.4-31.1-18"/>
		<path class="st1" d="M353.9,44.9c-13-2.1-26.6-16.5-30.9-17.2"/>
		<path class="st1" d="M354.7,44c-13-2-26-16-30.4-16.7"/>
		<path class="st1" d="M355.4,43.1c-13-2.1-25.3-15.6-29.6-16.2"/>
		<path class="st1" d="M356.1,42.1c-13.1-2.1-24.5-15-28.9-15.7"/>
		<path class="st1" d="M356.9,41c-13-2-23.7-14.3-28-15"/>
		<path class="st1" d="M357.4,40c-13-2-22.5-13.8-26.9-14.5"/>
		<path class="st1" d="M357.4,38.4c-13-2.1-20.7-12.6-25-13.3"/>
		<path class="st1" d="M358.5,37c-13-2.1-20.3-11.6-24.6-12.3"/>
		<path class="st1" d="M359.6,35.4c-13-2.1-19.6-10.5-24-11.2"/>
		<path class="st1" d="M360.5,33.9c-13-2-19.2-9.3-23.5-9.9"/>
		<path class="st1" d="M361.5,32.2c-13-2-18.4-7.9-22.8-8.7"/>
		<path class="st1" d="M362.4,30.5c-13-2-17.1-6.8-21.5-7.5"/>
		<path class="st1" d="M363.1,29.2c-13-2.1-16-5.8-20.3-6.5"/>
		<path class="st1" d="M363,27.7c-13.1-2.1-13.8-4.7-18.1-5.4"/>
		<path class="st1" d="M363.6,26.3c-13-2-12.6-3.6-17-4.3"/>
		<path class="st1" d="M364.1,25.1c-13.1-2.1-11.3-2.8-15.6-3.5"/>
		<path class="st1" d="M364.6,23.9c-13.1-2.1-9.3-2-13.7-2.6"/>
		<path class="st1" d="M364.9,22.6c-4.5-0.8-6.4-1.3-10.7-2"/>
		<path class="st1" d="M365.3,21.3c-3.7-0.6-5.6-0.6-8-1.1"/>
		<path class="st1" d="M365.5,20.6c-2.8-0.7-3.4-0.3-5.5-0.6"/>
		<path class="st1" d="M247.2,122.8"/>
		<path class="st1" d="M204.8,109.2"/>
		<path class="st1" d="M248.1,122.5"/>
		<path class="st1" d="M205.2,108.8"/>
		<path class="st1" d="M248.8,122.2"/>
		<path class="st1" d="M205.6,108.3"/>
		<path class="st1" d="M206,107.9"/>
	</g>
	<path class="st1" d="M152,185.4c1.7,4.3-0.7,7.5-4.3,8.8"/>
	<path class="st1" d="M151.4,184.7c2.2,4.9-0.5,8.1-4.2,9.4"/>
	<path class="st1" d="M150.9,184.4c2.2,5.3-0.6,8.3-4.3,9.6"/>
	<path class="st1" d="M150.4,184.1c2.4,5.2-0.4,8.4-4.1,9.7"/>
	<path class="st1" d="M150,184c2.2,5.1-0.4,8.3-4.1,9.5"/>
	<path class="st1" d="M149.3,183.9c2.4,4.6-0.1,8.1-3.9,9.2"/>
	<path class="st1" d="M148.8,184c2.3,4.8-0.1,7.6-3.7,8.8"/>
	<path class="st1" d="M148.3,184.1c2,4.4-0.3,7.3-3.5,8.4"/>
	<path class="st1" d="M147.8,184.3c1.8,3.5-0.2,6.7-2.9,7.6"/>
	<path class="st1" d="M147.3,184.6c1.3,2.9,0,5.8-2.2,6.5"/>
	<path class="st1" d="M146.8,185.1c0.9,2.3,0.2,4.6-1.4,5.1"/>
	<path class="st1" d="M146.4,186.3c0.7,1.3,0.1,2.6-0.8,2.8"/>
</g>
</svg>
